<?xml version="1.0" encoding="UTF-8" standalone="no"?>
<!-- Created with Inkscape (http://www.inkscape.org/) -->

<svg
   xmlns:dc="http://purl.org/dc/elements/1.1/"
   xmlns:cc="http://creativecommons.org/ns#"
   xmlns:rdf="http://www.w3.org/1999/02/22-rdf-syntax-ns#"
   xmlns:svg="http://www.w3.org/2000/svg"
   xmlns="http://www.w3.org/2000/svg"
   xmlns:sodipodi="http://sodipodi.sourceforge.net/DTD/sodipodi-0.dtd"
   xmlns:inkscape="http://www.inkscape.org/namespaces/inkscape"
   width="120"
   height="120"
   id="svg2"
   version="1.1"
   inkscape:version="0.48.5 r10040"
   sodipodi:docname="New document 1">
  <defs
     id="defs4" />
  <sodipodi:namedview
     id="base"
     pagecolor="#ffffff"
     bordercolor="#666666"
     borderopacity="1.0"
     inkscape:pageopacity="0.0"
     inkscape:pageshadow="2"
     inkscape:zoom="3.959798"
     inkscape:cx="61.385244"
     inkscape:cy="45.819947"
     inkscape:document-units="px"
     inkscape:current-layer="layer1"
     showgrid="false"
     inkscape:window-width="1280"
     inkscape:window-height="958"
     inkscape:window-x="0"
     inkscape:window-y="27"
     inkscape:window-maximized="1" />
  <metadata
     id="metadata7">
    <rdf:RDF>
      <cc:Work
         rdf:about="">
        <dc:format>image/svg+xml</dc:format>
        <dc:type
           rdf:resource="http://purl.org/dc/dcmitype/StillImage" />
        <dc:title></dc:title>
      </cc:Work>
    </rdf:RDF>
  </metadata>
  <g
     inkscape:label="Layer 1"
     inkscape:groupmode="layer"
     id="layer1"
     transform="translate(0,-932.36218)">
    <path
       style="fill:#67c39e;fill-opacity:1;stroke:none"
       d="m 56.564752,1051.935 c -23.292008,-1.17 -44.887725,-17.2957 -52.5859802,-39.32 -8.7202353,-23.01237 -1.1091724,-50.86916 18.0242862,-66.30928 17.998728,-15.40647 45.391789,-18.17461 66.169575,-6.83536 20.884357,10.74939 33.873937,34.6717 31.535137,58.03027 -1.82445,24.33077 -20.141725,46.25077 -43.746246,52.40617 -6.298279,1.7241 -12.877131,2.4292 -19.396772,2.0282 z m 7.98342,-6.0382 c 22.044895,-1.4336 41.967958,-17.9837 47.540498,-39.345 5.76666,-20.33345 -1.6504,-43.65126 -18.429342,-56.58443 C 75.59199,935.20821 47.790442,934.41131 28.941767,948.18525 12.91338,959.22975 4.1206957,979.43433 6.6021404,998.70024 c 2.2307075,21.19536 18.3710276,39.96386 38.9621666,45.42066 6.154003,1.8335 12.608939,2.1118 18.983865,1.7759 z m 12.044045,-13.4706 c -3.680504,0.57 -14.754676,-19.0207 -16.603368,-22.1923 -3.185719,4.5942 -5.269656,12.964 -6.545846,18.1811 -4.596559,5.4413 -8.937631,-5.4763 -12.283076,-8.089 -6.868361,-10.2934 -10.313914,-22.67715 -11.451995,-34.9058 -0.516499,-10.30282 0.394504,-21.54384 6.9551,-29.96535 3.130746,-3.63487 4.345738,-0.41477 2.831168,2.18356 -6.490845,13.23485 -7.198755,28.69692 -3.305381,42.79289 2.519925,9.0263 6.052598,18.1642 12.942332,24.7946 0.305053,-7.647 4.664623,-14.2593 8.169501,-20.7101 -4.776059,-11.13839 -8.882573,-23.86404 -5.364401,-35.93644 3.393536,-7.26468 10.983779,1.71695 10.62196,6.74425 0.320468,3.31308 0.515486,5.48646 2.66493,1.81821 2.658661,-4.94223 10.976014,-7.34913 12.889215,-0.50152 1.346732,5.58066 -3.267203,10.42531 -5.736574,15.06863 -3.368431,5.01446 -6.279601,10.34407 -10.113854,15.04007 4.070212,7.9586 8.628048,15.7623 14.339193,22.6616 6.270416,-16.3456 7.748587,-34.04517 9.28365,-51.34877 0.244313,-7.37198 0.602238,-15.41607 -3.090932,-22.04034 5.463102,-0.0196 6.752148,8.92216 7.390659,13.70665 1.120952,15.20787 -1.922959,30.31536 -3.947376,45.32396 -1.37811,5.7326 -2.553064,12.1779 -6.786409,16.5308 -0.913999,0.3196 -1.816999,1.4518 -2.858496,0.8433 z M 66.7976,990.78121 c 2.625079,-4.72289 6.61694,-8.86971 7.636661,-14.32976 -6.198073,2.3324 -9.404685,8.86581 -12.922859,14.07386 -3.89349,6.82494 -2.892734,-2.09437 -2.117895,-6.36758 0.523109,-5.82866 0.344002,-12.25512 -2.289381,-14.0811 -3.004438,4.83334 -1.896485,11.04927 -1.600495,16.45533 1.251674,4.20157 2.298509,12.20168 4.716232,13.95574 2.343264,-3.13014 4.496253,-6.39809 6.577737,-9.70649 z"
       id="path2996"
       inkscape:connector-curvature="0"
       sodipodi:nodetypes="ccccccccccccccccccccccccccccccccccccccccccccc" />
  </g>
</svg>
