<?xml version="1.0" encoding="UTF-8" standalone="no"?>
<!-- Created with Inkscape (http://www.inkscape.org/) -->

<svg
   xmlns:dc="http://purl.org/dc/elements/1.1/"
   xmlns:cc="http://creativecommons.org/ns#"
   xmlns:rdf="http://www.w3.org/1999/02/22-rdf-syntax-ns#"
   xmlns:svg="http://www.w3.org/2000/svg"
   xmlns="http://www.w3.org/2000/svg"
   version="1.1"
   width="399.44806"
   height="422.59259"
   viewBox="0 0 399.44804 422.59258"
   id="Layer_1"
   xml:space="preserve"><metadata
     id="metadata65"><rdf:RDF><cc:Work
         rdf:about=""><dc:format>image/svg+xml</dc:format><dc:type
           rdf:resource="http://purl.org/dc/dcmitype/StillImage" /><dc:title></dc:title></cc:Work></rdf:RDF></metadata><defs
     id="defs63" /><path
     d="m 399.30369,72.160641 c -0.912,7.905 -1.896,16.814 -2.977,25.711 -1.858,15.318999 -3.788,30.629999 -5.668,45.946999 -2.607,21.25 -5.229,42.498 -7.785,63.754 -2.14,17.798 -4.156,35.612 -6.295,53.411 -2.177,18.124 -5.186,36.188 -6.371,54.374 -0.684,10.483 -4.429,16.161 -13.979,20.958 -26.162,13.141 -51.615,27.69 -77.354,41.673 -26.616,14.458 -53.261,28.866 -79.828,43.415 -2.799,1.533 -4.954,1.628 -7.775,0.025 -52.231,-29.679 -104.509004,-59.274 -156.816004,-88.82 -2.384,-1.346 -3.542,-2.771 -3.872,-5.69 -2.415,-21.437 -5.127,-42.839 -7.691,-64.259 -2.131,-17.8 -4.144,-35.614 -6.291,-53.413 -2.504,-20.759 -5.137,-41.504 -7.6430004,-62.263 -2.168,-17.963 -4.232,-35.938 -6.354,-53.906999 -0.74,-6.264 -1.22,-12.58 -2.39199999,-18.763 -0.635,-3.35 0.065,-4.723 3.28399999,-5.829 18.5560004,-6.377 37.0340004,-12.978 55.5450004,-19.484 45.965004,-16.155 91.947004,-32.267 137.874004,-48.53000007 2.719,-0.963 4.869,-0.276 7.191,0.525 44.316,15.29800007 88.626,30.62000007 132.938,45.93200007 19.489,6.734 38.983,13.451 58.466,20.204 1.956,0.677 4.584,0.816 3.793,5.029 z"
     id="path21"
     style="fill:#b4b4b4;fill-rule:evenodd" /><path
     d="m 194.59369,22.539641 c 2.482,-0.74 4.516,0.771 6.635,1.491 57.085,19.389 114.137,38.874 171.232,58.233 2.83,0.959 3.889,1.805 3.461,5.147 -7.079,55.319999 -13.979,110.661999 -20.912,165.999999 -2.483,19.821 -5.026,39.636 -7.345,59.477 -0.353,3.009 -1.485,4.739 -4.092,6.175 -48.437,26.683 -96.829,53.445 -145.242,80.168 -1.115,0.615 -2.149,1.703 -3.656,1.105 -1.608,-1.944 -1.64,-4.284 -1.641,-6.622 -0.018,-46.347 -0.034,-92.693 0.014,-139.04 0.002,-2.156 0.022,-4.335 1.173,-6.279 1.618,-2.202 4.05,-2.039 6.359,-2.046 15.826,-0.049 31.652,0.05 47.478,-0.072 4.233,-0.032 6.674,1.512 8.335,5.52 7.016,16.925 14.63,33.598 21.645,50.522 1.767,4.264 4.087,6.438 8.927,6.055 9.49,-0.751 18.907,1.405 28.424,0.986 6.257,-0.275 6.689,-0.545 4.021,-6.046 -5.669,-11.688 -11.041,-23.514 -16.566,-35.268 -17.213,-36.622 -34.405,-73.253 -51.58,-109.894 -11.237,-23.974 -22.458,-47.956 -33.795,-71.883999 -7.628,-16.101 -14.829,-32.403 -22.76,-48.371 -0.264,-0.507 -0.483,-1.025 -0.69,-1.557 -0.911,-4.645 -1.843,-9.294 0.575,-13.8 z"
     id="path41"
     style="fill:#ba2c34;fill-rule:evenodd" /><path
     d="m 194.59369,22.539641 c 0.592,4.592 -0.91,9.332 0.972,13.832 -3.783,10.875 -9.014,21.127 -13.709,31.603 -11.309,25.233 -22.611,50.468999 -34.031,75.651999 -13.002,28.674 -25.779,57.448 -38.762,86.131 -11.059004,24.433 -22.094004,48.877 -32.995004,73.381 -2.286,5.138 -2.165,5.086 3.606,5.223 11,0.261 21.959004,-0.459 32.935004,-0.966 3.699,-0.171 5.209,-2.119 6.414,-5.158 6.573,-16.575 13.197,-33.13 19.861,-49.669 1.031,-2.558 1.647,-5.596 5.15,-6.169 15.549,-0.349 31.089,-0.108 46.628,-0.123 1.785,-0.002 3.705,-0.153 4.946,1.621 -1.283,1.773 -0.931,3.821 -0.931,5.792 -0.01,48.882 -0.006,97.764 -0.004,146.646 -14.155,-6.686 -27.519,-14.837 -41.217,-22.362 -34.894,-19.169 -69.647004,-38.593 -104.534004,-57.773 -2.729,-1.5 -3.755,-3.347 -4.079,-6.198 -5.388,-47.478 -10.801,-94.954 -16.259,-142.425 -3.081,-26.797 -6.146,-53.598 -9.482,-80.363999 -0.574,-4.606 -0.088,-6.884 4.957,-8.654 54.691,-19.186 109.263004,-38.713 163.879004,-58.113 2.168,-0.769 4.22,-2.035 6.655,-1.907 z"
     id="path43"
     style="fill:#e72d38;fill-rule:evenodd" /><path
     d="m 195.60869,247.89864 c -4.398,-1.245 -8.89,-0.483 -13.333,-0.552 -13.078,-0.2 -26.158,-0.23 -39.236,-0.327 1.283,-2.038 3.416,-1.861 5.346,-1.87 14.917,-0.069 29.833,-0.175 44.809,0.054 0.14,-11.15 -0.809,-22.386 0.464,-33.58 0.21,-0.545 0.549,-1.013 0.991,-1.395 1.975,-1.153 4.175,-0.889 6.315,-0.896 9.634,-0.032 19.269,0.035 28.902,-0.036 4.464,-0.033 4.722,-0.502 2.831,-4.549 -6.113,-13.088 -12.334,-26.131 -18.67,-39.109 -6.411,-13.13 -12.237,-26.548 -19.171,-39.423 -0.479,-0.889 -0.851,-1.797 -0.91,-2.827 0.071,-25.957999 0.443,-51.906999 -0.199,-77.853999 -0.071,-2.84 0.187,-5.654 1.994,-8.057 7.771,14.537 14.212,29.708 21.214,44.611 34.991,74.467999 69.903,148.971999 104.83,223.469999 2.311,4.928 2.26,4.982 -3.069,4.893 -11.493,-0.194 -22.986,-0.586 -34.479,-0.537 -3.477,0.016 -4.937,-1.325 -6.2,-4.308 -7.667,-18.095 -15.602,-36.076 -23.221,-54.19 -1.31,-3.114 -2.849,-4.204 -6.241,-4.137 -17.652,0.356 -35.31,0.441 -52.967,0.619 z"
     id="path47"
     style="fill:#b4b4b4;fill-rule:evenodd" /><path
     d="m 195.74169,37.479641 c -0.059,26.808 -0.123,53.615 -0.169,80.422999 -0.004,2.318 0.077,4.633 -0.665,6.875 0.259,0.769 0.458,1.543 0.267,2.363 -9.705,23.851 -19.826,47.532 -29.913,71.227 -0.911,2.141 -1.74,4.318 -2.699,6.436 -1.448,3.199 -0.601,4.589 3.027,4.54 7.643,-0.103 15.289,-0.072 22.933,-0.005 2.109,0.018 4.369,-0.429 6.161,1.259 0.023,10.772 -0.133,21.55 0.181,32.313 0.094,3.205 -0.74,3.799 -3.706,3.771 -14.915,-0.143 -29.832,-0.077 -44.748,-0.051 -1.129,0.002 -2.257,0.26 -3.379,0.395 -4.422,8.224 -7.218,17.14 -10.77,25.737 -4.45,10.771 -8.668,21.637 -13.043,32.438 -0.644,1.589 -0.813,3.685 -3.388,3.679 -14.435,-0.035 -28.869004,-0.017 -43.725004,-0.017 4.266,-9.536 8.578,-19.224 12.93,-28.894 35.808004,-79.548 71.622004,-159.095 107.454004,-238.632999 0.799,-1.774 1.099,-3.901 3.077,-4.961 0.058,0.367 0.117,0.736 0.175,1.105 z"
     id="path49"
     style="fill:#f3f3f3;fill-rule:evenodd" /><path
     d="m 194.53969,126.48264 c 0.122,-0.567 0.244,-1.135 0.367,-1.704 1.746,0.737 2.108,2.482 2.811,3.946 12.306,25.653 24.596,51.314 36.88,76.979 2.268,4.739 2.248,4.787 -3.22,4.741 -11.969,-0.101 -23.937,-0.246 -35.905,-0.373 -2.125,-0.84 -2.289,-2.781 -2.271,-4.571 0.249,-26.031 -1.163,-52.084 0.992,-78.09 0.026,-0.318 0.215,-0.622 0.346,-0.928 z"
     id="path53"
     style="fill:#ba2c34;fill-rule:evenodd" /><path
     d="m 194.53969,126.48264 c 1.001,4.348 0.313,8.697 0.26,13.075 -0.274,22.563 -0.141,45.133 -0.1,67.7 0.002,0.939 0.504,1.876 0.773,2.814 -0.286,0.141 -0.549,0.316 -0.79,0.524 -10.621,-0.048 -21.242,-0.148 -31.863,-0.109 -2.706,0.01 -4.096,-0.116 -2.657,-3.49 11.325,-26.555 22.506,-53.172 33.744,-79.764 0.122,-0.287 0.419,-0.501 0.633,-0.75 z"
     id="path55"
     style="fill:#e72e38;fill-rule:evenodd" /></svg>