<svg xmlns="http://www.w3.org/2000/svg" viewBox="0 0 399.45 422.59"><path d="M399.3 72.16c-.9 7.9-1.9 16.8-2.97 25.7-1.86 15.33-3.8 30.64-5.67 45.96-2.6 21.25-5.23 42.5-7.8 63.75-2.13 17.8-4.14 35.6-6.28 53.4-2.18 18.14-5.2 36.2-6.37 54.4-.6 10.47-4.4 16.15-13.9 20.95-26.1 13.14-51.6 27.7-77.3 41.67-26.6 14.4-53.2 28.8-79.8 43.4-2.8 1.5-4.9 1.6-7.7 0-52.2-29.7-104.5-59.3-156.8-88.8-2.4-1.4-3.6-2.8-3.9-5.7-2.4-21.5-5.1-42.9-7.7-64.3-2.1-17.8-4.1-35.6-6.3-53.4-2.5-20.8-5.1-41.5-7.6-62.3C6.9 129 4.8 111 2.7 93 1.83 86.8 1.4 80.5.2 74.3c-.62-3.34.08-4.7 3.3-5.82C22.05 62.1 40.53 55.5 59.04 49 105 32.85 151 16.73 196.92.47c2.7-.96 4.86-.28 7.2.53l132.92 45.93c19.5 6.73 39 13.45 58.47 20.2 2 .68 4.6.82 3.8 5.03z" fill="#b4b4b4" fill-rule="evenodd"/><path d="M194.6 22.54c2.48-.74 4.5.77 6.63 1.5C258.3 43.4 315.37 62.9 372.46 82.24c2.83.97 3.9 1.8 3.46 5.16-7.08 55.33-13.98 110.67-20.9 166-2.5 19.83-5.04 39.65-7.36 59.5-.35 3-1.48 4.73-4.1 6.16-48.42 26.7-96.82 53.45-145.23 80.17-1.1.62-2.15 1.7-3.66 1.1-1.6-1.94-1.64-4.28-1.64-6.62 0-46.3-.03-92.6.02-139 0-2.1.02-4.3 1.17-6.3 1.62-2.2 4.05-2 6.36-2 15.83 0 31.65.1 47.48 0 4.23 0 6.67 1.5 8.33 5.5 7 17 14.6 33.6 21.6 50.6 1.7 4.3 4.1 6.5 8.9 6.1 9.5-.7 18.9 1.4 28.4 1 6.2-.3 6.7-.5 4-6-5.7-11.6-11.1-23.5-16.6-35.2l-51.6-109.9c-11.3-24-22.5-47.9-33.8-71.9-7.7-16.1-14.9-32.4-22.8-48.3-.3-.5-.5-1.02-.7-1.55-.9-4.66-1.9-9.3.6-13.8z" fill="#ba2c34" fill-rule="evenodd"/><path d="M194.6 22.54c.6 4.6-.92 9.33.97 13.83-3.8 10.88-9.02 21.13-13.7 31.6-11.32 25.24-22.62 50.47-34.04 75.66-13 28.67-25.78 57.44-38.77 86.13-11.06 24.43-22.1 48.87-33 73.38-2.28 5.14-2.16 5.08 3.6 5.22 11 .26 21.97-.46 32.95-.96 3.7-.18 5.3-2.12 6.5-5.16 6.6-16.58 13.2-33.13 19.9-49.67 1.1-2.56 1.7-5.6 5.2-6.17 15.6-.35 31.1-.1 46.7-.12 1.8 0 3.7-.16 5 1.62-1.2 1.77-.9 3.82-.9 5.8v146.64c-14.1-6.7-27.5-14.84-41.2-22.37-34.9-19.17-69.7-38.6-104.6-57.77-2.7-1.5-3.7-3.35-4.1-6.2-5.3-47.48-10.8-94.95-16.2-142.42-3-26.8-6.1-53.6-9.4-80.37-.6-4.6-.1-6.8 4.9-8.6 54.5-19.2 109-38.7 163.6-58.1 2.2-.8 4.27-2 6.7-1.9z" fill="#e72d38" fill-rule="evenodd"/><path d="M195.6 247.9c-4.4-1.25-8.88-.48-13.32-.55-13.08-.2-26.16-.23-39.24-.33 1.28-2.04 3.42-1.86 5.35-1.87 14.9-.07 29.8-.18 44.8.05.1-11.15-.8-22.38.4-33.58.2-.54.5-1 1-1.4 1.9-1.14 4.1-.88 6.3-.9 9.6-.02 19.2.05 28.9-.02 4.4-.04 4.7-.5 2.8-4.55-6.2-13.1-12.4-26.13-18.7-39.1-6.4-13.14-12.3-26.56-19.2-39.43-.5-.9-.9-1.8-.9-2.83 0-26 .4-52-.2-77.9-.1-2.9.1-5.7 1.9-8.1 7.8 14.5 14.2 29.7 21.2 44.6 35 74.5 69.9 149 104.8 223.5 2.3 4.9 2.2 5-3.1 4.9-11.5-.2-23-.6-34.5-.6-3.5 0-5-1.3-6.2-4.3-7.7-18.1-15.6-36.1-23.2-54.2-1.3-3.1-2.9-4.2-6.3-4.2-17.7.3-35.3.4-53 .6z" fill="#b4b4b4" fill-rule="evenodd"/><path d="M195.74 37.48l-.17 80.42c0 2.32.08 4.64-.66 6.88.3.77.5 1.54.3 2.36-9.7 23.85-19.8 47.53-29.9 71.23-.9 2.14-1.7 4.32-2.7 6.43-1.4 3.2-.6 4.6 3 4.54 7.7-.1 15.3-.07 23 0 2.1.02 4.4-.43 6.2 1.26.1 10.77-.1 21.55.2 32.3.1 3.22-.7 3.8-3.7 3.78-14.9-.14-29.8-.08-44.7-.05-1.1 0-2.2.26-3.3.4-4.4 8.22-7.2 17.14-10.8 25.73-4.4 10.77-8.7 21.64-13 32.44-.6 1.6-.8 3.7-3.4 3.68-14.4-.04-28.9-.02-43.7-.02l12.9-28.9c35.8-79.54 71.6-159.1 107.5-238.62.8-1.78 1.1-3.9 3.1-4.97 0 .37.1.74.2 1.1z" fill="#f3f3f3" fill-rule="evenodd"/><path d="M194.54 126.48l.37-1.7c1.8.74 2.1 2.48 2.9 3.94l36.9 76.98c2.3 4.74 2.3 4.8-3.2 4.74-12-.1-23.9-.24-35.9-.37-2.1-.84-2.3-2.78-2.3-4.57.3-26.03-1.1-52.08 1-78.1.1-.3.2-.6.4-.92z" fill="#ba2c34" fill-rule="evenodd"/><path d="M194.54 126.48c1 4.35.3 8.7.26 13.08-.27 22.56-.14 45.13-.1 67.7 0 .94.5 1.87.77 2.8-.28.15-.55.33-.8.54-10.6-.05-21.23-.15-31.85-.1-2.7 0-4.1-.13-2.66-3.5 11.33-26.56 22.5-53.18 33.75-79.77.2-.28.5-.5.7-.75z" fill="#e72e38" fill-rule="evenodd"/></svg>
