<?xml version="1.0" encoding="UTF-8" standalone="no"?>
<!-- Created with Inkscape (http://www.inkscape.org/) -->

<svg
   xmlns:dc="http://purl.org/dc/elements/1.1/"
   xmlns:cc="http://creativecommons.org/ns#"
   xmlns:rdf="http://www.w3.org/1999/02/22-rdf-syntax-ns#"
   xmlns:svg="http://www.w3.org/2000/svg"
   xmlns="http://www.w3.org/2000/svg"
   version="1.1"
   width="241.40741"
   height="240.5"
   id="svg2">
  <defs
     id="defs4" />
  <metadata
     id="metadata7">
    <rdf:RDF>
      <cc:Work
         rdf:about="">
        <dc:format>image/svg+xml</dc:format>
        <dc:type
           rdf:resource="http://purl.org/dc/dcmitype/StillImage" />
        <dc:title></dc:title>
      </cc:Work>
    </rdf:RDF>
  </metadata>
  <g
     transform="translate(-133.1739,-298.5067)"
     id="layer1">
    <g
       id="g3020">
      <path
         d="m 187.57978,438.51178 c 13.83814,12.7767 34.02404,23.5672 87.54306,22.42772 0.0256,5.45374 1.76536,12.95406 -1.43201,18.30189 -46.15506,2.71538 -78.93591,-8.6676 -86.11105,-40.72961 z m 62.00153,17.43856 c -21.34583,-1.29671 -48.21467,-9.35314 -60.42719,-22.19562 -3.73751,-3.85039 -4.48701,-12.63636 -5.64946,-20.5101 26.50687,21.86572 62.24233,24.31033 93.70163,22.26212 -0.55077,6.69462 -0.77114,13.44291 -1.50038,20.1126 -0.771,0.69675 -18.38846,0.91999 -26.1246,0.33104 z m 68.26021,-1.68603 c 0.38647,-4.55457 2.29264,-16.88183 2.02362,-19.13874 -12.32501,-6.80866 -23.45942,-9.71861 -40.88921,-16.11887 -0.98718,-0.09 -1.16175,14.28266 -1.60178,12.23908 -37.38666,-0.78011 -63.53449,1.76724 -95.57366,-25.99635 -0.72292,-7.96001 -2.62526,-23.9454 -3.85448,-31.74273 17.87434,25.91256 69.91117,36.86678 101.71003,27.77864 -0.0779,3.39362 -1.76178,8.55104 -0.13873,11.30968 2.38546,0.85822 41.98761,14.41168 42.10982,14.41168 0.71224,0 2.47187,-17.36478 1.82025,-17.96309 -17.86821,-5.47658 -33.58448,-11.83497 -47.79019,-15.48624 -1.5154,1.16884 -7.61482,-10.82551 -6.41647,-9.48862 0.73733,0.85913 4.0406,2.324 7.3406,3.25527 15.974,3.04924 32.70092,11.29396 48.68735,14.81968 1.35612,-1.25678 4.49951,-24.07053 3.38061,-24.5354 -0.58738,-0.24404 -0.31796,-0.47923 0.59871,-0.52265 0.91666,-0.0434 1.93186,-0.64145 2.25598,-1.32895 0.32412,-0.6875 0.39222,-0.125 0.15132,1.25 -0.50062,9.12901 -10.37982,78.33646 -13.81377,77.25761 z"
         id="path3034"
         style="fill:#cacb65" />
      <path
         d="m 278.65352,438.61736 c -1.84161,-0.81295 -1.45281,-0.66698 -0.91274,-9.26145 0.3404,-5.41707 0.76797,-10.0234 0.95014,-10.2363 0.18218,-0.21289 9.45704,2.77033 20.61081,6.62939 l 20.27958,7.01647 c 0.61726,8.01577 -0.73368,13.85991 -2.25,22.53004 -12.20026,-3.93808 -32.91706,-14.0988 -38.67779,-16.67815 z m 20.92779,-19.09541 c -11.55,-4.02887 -20.91327,-7.74066 -20.80728,-8.24841 0.106,-0.50775 0.29593,-3.18481 0.42205,-5.94902 0.17693,-3.87736 -0.29194,-5.7579 -2.05181,-8.2294 -1.25463,-1.76197 -2.10973,-3.37498 -1.90022,-3.58449 15.21514,4.44319 33.52833,10.39764 48.20332,15.53298 0.91998,0.84472 -1.26695,18.02012 -2.27707,17.88332 -0.32395,-0.0439 -10.03899,-3.37611 -21.58899,-7.40498 z m 2.5,-24.09474 c -12.375,-4.04783 -24.58788,-7.89573 -27.13974,-8.55089 -4.59326,-1.17927 -4.72507,-1.33232 -13.1598,-15.28041 -4.68604,-7.74907 -8.44458,-14.1678 -8.3523,-14.26385 25.44933,6.81685 50.95318,13.45367 76.29914,20.64925 l -1.8863,11.7627 c -1.03747,6.46948 -2.19561,12.05073 -2.57365,12.40279 -0.37804,0.35205 -10.81235,-2.67176 -23.18735,-6.71959 z"
         id="path3032"
         style="fill:#adad54" />
      <path
         d="m 240.99779,524.65792 -17.20233,9.90498 -10.85164,-17.5562 -18.24239,6 -4.91903,-20.11374 -21.02304,1.40824 1.28287,-20.96686 -19.96092,-4.80746 6,-19.00206 -18,-9.6852 10.31537,-17.77248 -15.22278,-13.18433 15.22278,-12.90481 -10.31537,-17.80422 18,-9.6852 -6,-18.98112 20.04461,-4.78704 -1.35818,-21.00766 21.01466,1.40768 4.73725,-20.1088 18.47023,5.99506 10.80558,-17.55619 16.44811,10.72663 13.85473,-15.67044 13.95973,15.75513 16.96761,-11.25513 10.01138,17.98662 18.62021,-5.97324 4.59778,20.10875 21.13987,-1.41607 -1.35355,20.93606 20.03998,4.6851 -5.77755,19.1682 18.66616,9.34705 -11.89401,17.15786 15.5054,14.00667 -15.48573,14.02104 11.87434,17.12949 -18.70297,9.38386 5.4286,19.0215 -19.65317,4.81123 1.3525,20.91982 -21.0852,-1.41241 -4.63114,20.11121 -19.09702,-5.79337 -9.13161,17.73245 -18.73199,-9.81966 c 0,0 -12.01596,13.88784 -12.66446,13.88784 z m 49.08352,-40.42151 c 14.49949,-3.2855 31.969,-9.69728 40.98808,-20.33384 4.73703,-5.9928 5.96094,-12.39968 3.49426,-18.29161 -1.19115,-3.58024 -3.92256,-6.27296 -6.13531,-8.86725 -1.18413,-1.39096 -2.94115,-2.97011 -3.90449,-3.50923 -1.22247,-0.68413 -1.52079,-1.54619 -0.98764,-2.85399 3.84787,-16.06242 7.60044,-43.9649 10.41687,-59.15566 0.80699,-4.38479 -0.85324,-8.22597 -1.04982,-12.94989 -0.6419,-2.20835 -1.26996,-2.70091 -3.68831,-5.85085 -6.20181,-4.73668 -14.58163,-12.34792 -20.38366,-14.07841 -20.14267,-6.95634 -16.82432,-5.64275 -31.24998,-8.27192 -14.61398,-2.97593 -30.05218,-0.21666 -42.81806,0.20431 -18.54927,2.4866 -28.99504,7.08146 -38.93194,10.92676 -10.38628,4.10191 -15.55354,12.98875 -18.69961,19.33301 -1.31665,10.51429 1.72509,21.92068 2.97873,30.46886 0.79037,5.28879 0.11741,20.82747 2.88735,24.39935 0.84314,1.01592 1.36135,4.80399 1.44823,10.58645 0.0744,4.95245 0.42465,9.00665 0.77831,9.00933 0.35366,0.003 0.93994,0.77865 1.30285,1.72439 0.36292,0.94573 0.35749,1.41716 -0.0121,1.04762 -1.973,-1.97301 -7.4338,8.31705 -7.4338,14.00789 0,13.99732 16.61041,25.92637 44.79058,32.1671 12.2933,2.72246 14.32888,2.86444 36.70942,2.56041 15.35207,-0.20855 22.20777,-0.73675 29.5,-2.27283 z"
         id="path3030"
         style="fill:#d63225" />
      <path
         d="m 236.58131,486.32927 c -10.53046,-1.18905 -28.74262,-6.31349 -37.5,-10.55156 -16.61537,-8.0409 -23.8703,-21.0795 -17.91331,-32.19394 3.76288,-7.02072 5.91331,-7.90723 5.91331,-2.43774 0,3.84132 4.37997,12.77631 8.78672,17.92461 2.00431,2.34158 6.22503,6.15732 9.37939,8.47942 7.26163,5.06774 9.31276,5.59405 14.11912,7.35869 3.18188,1.17715 9.03188,2.84276 13,3.70134 7.92809,1.71541 32.88646,2.72621 39.21477,1.58818 l 4,-0.71933 0.85806,-19.98612 c 0.47194,-10.99237 0.96996,-20.10914 1.10671,-20.2595 0.21882,-0.24058 8.22517,3.11979 29.03523,12.1865 3.3,1.43777 6.86696,3.11143 7.92658,3.71925 3.23038,1.85302 5.18689,-2.1558 7.75143,-15.88237 0.64223,-3.4375 1.45506,-6.25 1.80628,-6.25 0.77047,0 3.70681,2.76037 6.74599,6.34171 6.49468,7.65327 6.58804,16.5458 0.2578,24.55416 -9.25591,11.179 -27.13778,17.26063 -40.98808,20.33384 -7.29223,1.53608 -14.14793,2.06428 -29.5,2.27283 -11,0.14943 -21.8,0.0684 -24,-0.17997 z"
         id="path3028"
         style="fill:#b3271b" />
    </g>
  </g>
</svg>
