<svg xmlns="http://www.w3.org/2000/svg" viewBox="0 0 681.2 778.6" overflow="visible"><path d="M510.2 144.8C470.4 120 433 110.3 395.4 85.6 372.2 69.8 340 32.3 313 0c-5.4 52-21 73-39 88-38.3 30-62.3 39-95.3 57C151 159 .2 249 .2 442.6s162.7 336 343.5 336c180.7 0 337.5-131.3 337.5-330 0-198.8-147-288.8-171-303.8z" fill="#00598e"/><path d="M449.3 610.5c12 0 24.7.8 33.7 6.8 9 6 14.3 19.5 17.3 27s0 12-6 15c-5.3 3-6 1.5-11.3-8.3-5.3-9.8-9.8-19.5-36-19.5-26.3 0-34.5 9-47.3 19.5-12.7 10.5-17.2 14.3-21.7 8.3s-3-12 5.3-19.5c8.2-7.5 21.7-19.5 34.4-24.8 12.8-5.3 19.6-4.5 31.6-4.5zM324.8 696c15 12 37.4 21.8 85.4 21.8 48 0 81.8-13.5 96.8-24.8 6.8-5.3 9.8-.8 10.5 2.3.8 3 2.3 7.5-3 12.7-3.8 3.8-38.3 27.8-78.8 31.5-40.4 3.8-95.2 6-128.2-24-5.3-5.3-3.8-12.8 0-15.8s6.8-5.2 11.3-5.2c4.4 0 3.7 0 6 1.5z" fill="#fff"/><path d="M141 639c57-.8 67.5-10.5 117.8-33C530 484.5 580.5 373.5 590 348c9.8-25.5 24-66.8 9-112.5-2.8-8.8-5-16-6.5-21.6-36-41-72-63-82.7-70-39-25-77.3-34.7-114.8-59-23-15-55-53-82-85.8-5.3 51.7-20.3 73.4-39 87.7-38.3 30-62.3 39-95.3 57C150.7 159.7 0 249 0 442.2c0 62 16.6 118.8 45 167l7.5-.2c15.8 14.5 40.5 31 88.5 30z" fill="#0073ba"/><path d="M510 144.8c-39-24.8-77.3-34.6-114.8-59.3C372 70.5 340 32.2 313 0c-5.3 51.8-20.3 73.5-39 87.8-38.3 30-62.3 39-95.3 57C150.7 159.8 0 249 0 442.4c0 62 16.6 118.6 45 167 61 103 175.6 169 298.6 169 180.8 0 337.5-131.2 337.5-330 0-109-44-185.4-88-234.4-36-40.6-72-62.6-82-69.4zm91.2 87.7c49.2 61.6 74.2 134.3 74.2 216 0 47.4-9 92.2-27 133.2-16.8 38.8-41 73.2-72.2 102.2-61.5 57-144 89-232.7 89-43.8 0-86.8-9-127.8-25-40.3-17-76.6-40-108-69C42 616 5.7 532 5.7 442c0-80.3 26-151.7 77.5-212.2 39.4-46 81.8-71.6 98.2-80.5l22.6-12C226.6 126 248 115 277.4 92 293 80 309.8 61.4 317 13.5 341.3 43 370 76 392 90.2c19.5 13 39.5 22 58.8 30.6 18.3 8.3 37.3 16.8 56 28.7l.7.4c54.7 34 84 70 93.5 82z" fill="#004975"/><path d="M316.5 15c10.5 30.8 9 46.5 9 53.3 0 6.7-3.8 24.7-15.8 33.7-5.2 3.8-6.7 6.8-6.7 7.5 0 3 6.8 5.3 6.8 12 0 8.3-3.8 24.8-43.6 64.5-39.7 39.8-96.7 75-141 96.8C81 304.4 60 303 54 292.4s2.3-33.8 30-64.5c27.8-31 115.5-75 115.5-75L309 76l6-29.3" fill="#93c5e4"/><path d="M316.5 14.3c-6.8 49.5-21.8 64.5-42 80.2-33.8 25.5-66.8 41.3-74.3 45-19.4 9.8-90 48.8-126.7 105-11.3 17.3 0 24 2.3 25.5 2.2 1.5 27.7 4.5 82.5-28.5 54.7-33 78.7-52.5 109.4-84.8 16.6-17.2 18.8-27 18.8-31.4 0-5.3-3.8-7.5-9.8-9-3-.8-3.7-2.3 0-4.5 3.8-2.3 19.6-9.8 23.3-12.8 3.8-3 21.8-15 22.5-34.5.8-19.5-.8-33-6-50.3zM147.8 559.5c.7-58.5 55.4-113.3 124.4-114 87.8-.8 148.6 87 192.8 86.3 37.5-.8 109.5-74.3 144.8-74.3 37.5 0 48 39 48 62.3 0 23.2-7.5 65.2-25.5 91.5-18 26.2-29.3 36-50.3 34.5-27-2.3-81-86.3-115.5-87.8-43.5-1.5-138 90.8-212.3 90.8-45 0-58.4-6.8-73.4-16.5-22.6-15.8-33.8-39.8-33-72.8z" fill="#fff"/><path d="M599.3 235.5c15 45.8.7 87-9 112.5-9.8 25.5-60 136.5-331.5 258-50.3 22.5-60.8 32.3-117.8 33-48 .8-72.8-15.8-88.5-30l-7.4.3c61 103.2 176 169.2 299 169.2 181 0 338-131.3 338-330-1-109-45-185.5-89-234.5l6.7 21.4z" fill="none"/></svg>
