<?xml version="1.0" encoding="UTF-8" standalone="no"?>
<!-- Created with Inkscape (http://www.inkscape.org/) -->

<svg
   xmlns:dc="http://purl.org/dc/elements/1.1/"
   xmlns:cc="http://creativecommons.org/ns#"
   xmlns:rdf="http://www.w3.org/1999/02/22-rdf-syntax-ns#"
   xmlns:svg="http://www.w3.org/2000/svg"
   xmlns="http://www.w3.org/2000/svg"
   version="1.1"
   width="604.45227"
   height="372.29938"
   id="svg2">
  <defs
     id="defs4" />
  <metadata
     id="metadata7">
    <rdf:RDF>
      <cc:Work
         rdf:about="">
        <dc:format>image/svg+xml</dc:format>
        <dc:type
           rdf:resource="http://purl.org/dc/dcmitype/StillImage" />
        <dc:title></dc:title>
      </cc:Work>
    </rdf:RDF>
  </metadata>
  <g
     transform="translate(-13.178777,-312.36218)"
     id="layer1">
    <path
       d="m 121.42857,532.36218 314.28572,0 101.8965,-176.48991 50.02024,0"
       id="path2993"
       style="fill:none;stroke:#3399ff;stroke-width:60;stroke-linecap:round;stroke-linejoin:round;stroke-miterlimit:4;stroke-opacity:1;stroke-dasharray:none" />
    <path
       d="m 356.42856,263.79074 a 50,50 0 1 1 -100,0 50,50 0 1 1 100,0 z"
       transform="matrix(0.8,0,0,0.8,-145,236.32959)"
       id="path3775"
       style="fill:#3399ff;fill-opacity:1;stroke:none" />
    <path
       d="m 356.42856,263.79074 a 50,50 0 1 1 -100,0 50,50 0 1 1 100,0 z"
       transform="matrix(0.8,0,0,0.8,-51.071847,236.32959)"
       id="path3775-6"
       style="fill:#3399ff;fill-opacity:1;stroke:none" />
    <path
       d="m 356.42856,263.79074 a 50,50 0 1 1 -100,0 50,50 0 1 1 100,0 z"
       transform="matrix(0.8,0,0,0.8,43.57144,236.32959)"
       id="path3775-6-1"
       style="fill:#3399ff;fill-opacity:1;stroke:none" />
    <path
       d="m 356.42856,263.79074 a 50,50 0 1 1 -100,0 50,50 0 1 1 100,0 z"
       transform="matrix(0.8,0,0,0.8,138.92815,236.32959)"
       id="path3775-6-1-7"
       style="fill:#3399ff;fill-opacity:1;stroke:none" />
    <path
       d="m 356.42856,263.79074 a 50,50 0 1 1 -100,0 50,50 0 1 1 100,0 z"
       transform="matrix(0.8,0,0,0.8,-191.96407,141.32959)"
       id="path3775-3"
       style="fill:#3399ff;fill-opacity:1;stroke:none" />
    <path
       d="m 356.42856,263.79074 a 50,50 0 1 1 -100,0 50,50 0 1 1 100,0 z"
       transform="matrix(0.8,0,0,0.8,-98.03591,141.32959)"
       id="path3775-6-7"
       style="fill:#3399ff;fill-opacity:1;stroke:none" />
    <path
       d="m 356.42856,263.79074 a 50,50 0 1 1 -100,0 50,50 0 1 1 100,0 z"
       transform="matrix(0.8,0,0,0.8,-3.392623,141.32959)"
       id="path3775-6-1-1"
       style="fill:#3399ff;fill-opacity:1;stroke:none" />
    <path
       d="m 356.42856,263.79074 a 50,50 0 1 1 -100,0 50,50 0 1 1 100,0 z"
       transform="matrix(0.8,0,0,0.8,91.964087,141.32959)"
       id="path3775-6-1-7-5"
       style="fill:#3399ff;fill-opacity:1;stroke:none" />
    <path
       d="m 356.42856,263.79074 a 50,50 0 1 1 -100,0 50,50 0 1 1 100,0 z"
       transform="matrix(0.8,0,0,0.8,186.96415,141.32959)"
       id="path3775-6-1-7-5-9"
       style="fill:#3399ff;fill-opacity:1;stroke:none" />
    <path
       d="m 356.42856,263.79074 a 50,50 0 1 1 -100,0 50,50 0 1 1 100,0 z"
       transform="translate(-139.74324,370.87081)"
       id="path3775-9"
       style="fill:#3399ff;fill-opacity:1;stroke:none" />
    <path
       d="m 356.42856,263.79074 a 50,50 0 1 1 -100,0 50,50 0 1 1 100,0 z"
       transform="translate(90.57144,370.87081)"
       id="path3775-9-3"
       style="fill:#3399ff;fill-opacity:1;stroke:none" />
  </g>
</svg>
