<?xml version="1.0" encoding="UTF-8" standalone="no"?>
<!-- Created with Inkscape (http://www.inkscape.org/) -->

<svg
   xmlns:dc="http://purl.org/dc/elements/1.1/"
   xmlns:cc="http://creativecommons.org/ns#"
   xmlns:rdf="http://www.w3.org/1999/02/22-rdf-syntax-ns#"
   xmlns:svg="http://www.w3.org/2000/svg"
   xmlns="http://www.w3.org/2000/svg"
   version="1.1"
   width="49.09375"
   height="51.09375"
   viewBox="0 0 49.09375 51.09375"
   id="svg3882">
  <defs
     id="defs3884" />
  <metadata
     id="metadata3887">
    <rdf:RDF>
      <cc:Work
         rdf:about="">
        <dc:format>image/svg+xml</dc:format>
        <dc:type
           rdf:resource="http://purl.org/dc/dcmitype/StillImage" />
        <dc:title></dc:title>
      </cc:Work>
    </rdf:RDF>
  </metadata>
  <g
     transform="translate(-9.1875005,-4.082386)"
     id="layer1">
    <g
       id="text3890"
       style="font-size:40px;font-style:normal;font-variant:normal;font-weight:bold;font-stretch:normal;line-height:125%;letter-spacing:0px;word-spacing:0px;fill:#3399ff;fill-opacity:1;stroke:none;font-family:Droid Sans;-inkscape-font-specification:Droid Sans Bold">
      <path
         d="m 58.28125,26.863636 c 0.07874,6.148619 -2.302672,13.394195 -8.500653,15.802128 -3.875077,1.982141 -8.359679,-1.5329 -10.211612,-3.201143 -2.813076,2.64476 -6.713952,4.644757 -10.621418,3.362073 -4.818106,-1.164345 -7.951223,-5.961177 -7.96838,-10.781669 -0.749896,-6.700776 3.239687,-14.250956 10.222472,-15.608354 4.406585,-1.032763 8.974758,-0.162761 13.265537,0.99113 2.234508,3.129483 -0.196495,7.078899 0.473565,10.584373 0.0026,2.977831 -1.739906,10.162924 3.42528,8.735659 3.038764,-1.48138 2.629151,-5.412915 3.002606,-8.246548 0.907762,-7.318579 -2.995438,-15.69092 -10.490624,-17.747758 -8.849934,-2.8610664 -19.932068,1.626532 -22.992479,10.727621 -2.628446,6.99286 -2.629079,15.471897 1.507983,21.877071 4.088027,5.410142 11.460781,6.584517 17.791003,5.584437 3.45913,-0.440816 6.832431,-1.401813 10.09672,-2.610271 0,2 0,4 0,6 C 37.619903,56.36679 25.488313,56.65632 16.829766,50.135472 8.8241922,43.368909 7.5801061,31.462322 10.646244,21.946234 13.106259,13.955236 19.574789,7.2534735 27.746431,5.13366 37.364619,2.238297 49.40218,4.9749696 54.850955,13.953027 c 2.38071,3.841291 3.557358,8.399565 3.430295,12.910609 z m -30.0625,3.90625 c -0.763825,3.393119 2.398865,8.118635 6.148891,6.192594 3.803353,-2.223297 3.10133,-7.148476 3.585518,-10.883146 0.890701,-3.107322 -0.70057,-5.59805 -4.111966,-4.284509 -4.333013,0.6485 -5.679036,5.199487 -5.622443,8.975061 z"
         id="path2986"
         style="font-size:64px;fill:#3399ff;font-family:Droid Sans;-inkscape-font-specification:Droid Sans Bold" />
    </g>
  </g>
</svg>
