<?xml version="1.0" encoding="UTF-8" standalone="no"?>
<!-- Created with Inkscape (http://www.inkscape.org/) -->

<svg
   xmlns:dc="http://purl.org/dc/elements/1.1/"
   xmlns:cc="http://creativecommons.org/ns#"
   xmlns:rdf="http://www.w3.org/1999/02/22-rdf-syntax-ns#"
   xmlns:svg="http://www.w3.org/2000/svg"
   xmlns="http://www.w3.org/2000/svg"
   xmlns:xlink="http://www.w3.org/1999/xlink"
   version="1.1"
   width="188.96964"
   height="337.7283"
   id="svg3586">
  <defs
     id="defs3588">
    <linearGradient
       x1="724.5791"
       y1="335.69629"
       x2="787.73462"
       y2="398.85181"
       id="linearGradient3296"
       xlink:href="#tube_4_"
       gradientUnits="userSpaceOnUse"
       gradientTransform="matrix(0.9138,-0.4062,0.4062,0.9138,-56.6658,215.7002)" />
    <linearGradient
       x1="724.5791"
       y1="335.69629"
       x2="787.73462"
       y2="398.85181"
       id="tube_4_"
       gradientUnits="userSpaceOnUse"
       gradientTransform="matrix(0.9138,-0.4062,0.4062,0.9138,-56.6658,215.7002)">
      <stop
         id="stop136"
         style="stop-color:#919191;stop-opacity:1"
         offset="0" />
      <stop
         id="stop138"
         style="stop-color:#ffffff;stop-opacity:1"
         offset="1" />
    </linearGradient>
    <linearGradient
       x1="700.83197"
       y1="383.875"
       x2="739.06622"
       y2="422.10919"
       id="linearGradient3298"
       xlink:href="#liquid_3_"
       gradientUnits="userSpaceOnUse"
       gradientTransform="matrix(0.9138,-0.4062,0.4062,0.9138,-56.6658,215.7002)" />
    <linearGradient
       x1="700.83197"
       y1="383.875"
       x2="739.06622"
       y2="422.10919"
       id="liquid_3_"
       gradientUnits="userSpaceOnUse"
       gradientTransform="matrix(0.9138,-0.4062,0.4062,0.9138,-56.6658,215.7002)">
      <stop
         id="stop142"
         style="stop-color:#990000;stop-opacity:1"
         offset="0" />
      <stop
         id="stop144"
         style="stop-color:#e80000;stop-opacity:1"
         offset="1" />
    </linearGradient>
    <linearGradient
       x1="411.25879"
       y1="399.63571"
       x2="411.25879"
       y2="134.1638"
       id="linearGradient3300"
       xlink:href="#SVGID_3_"
       gradientUnits="userSpaceOnUse" />
    <linearGradient
       x1="411.25879"
       y1="399.63571"
       x2="411.25879"
       y2="134.1638"
       id="SVGID_3_"
       gradientUnits="userSpaceOnUse">
      <stop
         id="stop174"
         style="stop-color:#1a1a1a;stop-opacity:1"
         offset="0" />
      <stop
         id="stop176"
         style="stop-color:#4a4a4c;stop-opacity:1"
         offset="0.40259999" />
      <stop
         id="stop178"
         style="stop-color:#333333;stop-opacity:1"
         offset="1" />
    </linearGradient>
    <mask
       id="SVGID_4_">
      <g
         id="g188"
         style="filter:url(#Adobe_OpacityMaskFilter_1_)">
        <image
           xlink:href="/home/sotiri/BFF79FDAE99D0745.jpg"
           width="711"
           height="270"
           transform="translate(56,132)"
           id="image190"
           style="overflow:visible" />
      </g>
    </mask>
    <filter
       filterUnits="userSpaceOnUse"
       x="58.293999"
       y="134.16499"
       width="705.92902"
       height="265.47101"
       color-interpolation-filters="sRGB"
       id="Adobe_OpacityMaskFilter_1_">
      <feColorMatrix
         id="feColorMatrix185"
         result="source"
         color-interpolation-filters="sRGB"
         values="-1 0 0 0 1  0 -1 0 0 1  0 0 -1 0 1  0 0 0 1 0"
         type="matrix" />
    </filter>
    <linearGradient
       x1="724.5791"
       y1="335.69629"
       x2="787.73462"
       y2="398.85181"
       id="linearGradient3841"
       xlink:href="#tube_4_"
       gradientUnits="userSpaceOnUse"
       gradientTransform="matrix(0.9138,-0.4062,0.4062,0.9138,-56.6658,215.7002)" />
    <linearGradient
       x1="700.83197"
       y1="383.875"
       x2="739.06622"
       y2="422.10919"
       id="linearGradient3843"
       xlink:href="#liquid_3_"
       gradientUnits="userSpaceOnUse"
       gradientTransform="matrix(0.9138,-0.4062,0.4062,0.9138,-56.6658,215.7002)" />
    <linearGradient
       x1="411.25879"
       y1="399.63571"
       x2="411.25879"
       y2="134.1638"
       id="linearGradient3845"
       xlink:href="#SVGID_3_"
       gradientUnits="userSpaceOnUse" />
    <linearGradient
       x1="724.5791"
       y1="335.69629"
       x2="787.73462"
       y2="398.85181"
       id="linearGradient3072"
       xlink:href="#tube_4_"
       gradientUnits="userSpaceOnUse"
       gradientTransform="matrix(0.9138,-0.4062,0.4062,0.9138,-56.6658,215.7002)" />
    <linearGradient
       x1="700.83197"
       y1="383.875"
       x2="739.06622"
       y2="422.10919"
       id="linearGradient3074"
       xlink:href="#liquid_3_"
       gradientUnits="userSpaceOnUse"
       gradientTransform="matrix(0.9138,-0.4062,0.4062,0.9138,-56.6658,215.7002)" />
  </defs>
  <metadata
     id="metadata3591">
    <rdf:RDF>
      <cc:Work
         rdf:about="">
        <dc:format>image/svg+xml</dc:format>
        <dc:type
           rdf:resource="http://purl.org/dc/dcmitype/StillImage" />
        <dc:title></dc:title>
      </cc:Work>
    </rdf:RDF>
  </metadata>
  <g
     transform="translate(-567.82606,-157.78374)"
     id="layer1">
    <g
       id="g3771">
      <g
         transform="translate(-129.37598,84.135381)"
         id="test-tube_1_"
         style="display:inline">
        <path
           d="m 802.411,80.363 c -0.151,0.607 -0.155,1.259 -0.027,1.948 0,0 2.065,13.708 -0.279,19.809 l -99.675,259.171 0.008,0.003 c -7.113,19.036 2.419,40.289 21.429,47.601 19.009,7.311 40.325,-2.079 47.801,-20.976 l 0.009,0.004 99.675,-259.172 c 1.949,-5.07 13.064,-14.892 13.064,-14.892 0.558,-0.425 0.99,-0.913 1.285,-1.464 l 0.049,-0.101 c 0.054,-0.108 0.116,-0.212 0.159,-0.325 2.57,-6.683 -14.008,-19.279 -37.028,-28.132 -23.021,-8.854 -43.767,-10.613 -46.337,-3.93 -0.044,0.113 -0.068,0.231 -0.101,0.348 l -0.032,0.108 z"
           id="shadow_1_"
           style="opacity:0.1" />
        <linearGradient
           x1="724.5791"
           y1="335.69629"
           x2="787.73462"
           y2="398.85181"
           id="linearGradient3364"
           gradientUnits="userSpaceOnUse"
           gradientTransform="matrix(0.9138,-0.4062,0.4062,0.9138,-56.6658,215.7002)">
          <stop
             id="stop3366"
             style="stop-color:#919191;stop-opacity:1"
             offset="0" />
          <stop
             id="stop3368"
             style="stop-color:#ffffff;stop-opacity:1"
             offset="1" />
        </linearGradient>
        <path
           d="m 799.53,78.16 c -0.152,0.607 -0.156,1.259 -0.027,1.948 0,0 2.065,13.708 -0.28,19.809 l -99.675,259.171 0.009,0.003 c -7.113,19.036 2.419,40.289 21.429,47.601 19.008,7.311 40.325,-2.079 47.801,-20.976 l 0.009,0.004 99.675,-259.172 c 1.948,-5.07 13.064,-14.892 13.064,-14.892 0.558,-0.425 0.99,-0.912 1.285,-1.464 l 0.048,-0.101 c 0.054,-0.108 0.116,-0.212 0.159,-0.325 2.57,-6.683 -14.008,-19.279 -37.027,-28.132 -23.021,-8.854 -43.767,-10.613 -46.337,-3.93 -0.044,0.113 -0.068,0.231 -0.101,0.348 l -0.032,0.108 z"
           id="tube_1_"
           style="fill:url(#linearGradient3072)" />
        <linearGradient
           x1="700.83197"
           y1="383.875"
           x2="739.06622"
           y2="422.10919"
           id="linearGradient3371"
           gradientUnits="userSpaceOnUse"
           gradientTransform="matrix(0.9138,-0.4062,0.4062,0.9138,-56.6658,215.7002)">
          <stop
             id="stop3373"
             style="stop-color:#990000;stop-opacity:1"
             offset="0" />
          <stop
             id="stop3375"
             style="stop-color:#e80000;stop-opacity:1"
             offset="1" />
        </linearGradient>
        <path
           d="m 830.797,195.407 -71.88,186.9 0.047,0.018 c -5.302,13.396 -20.729,20.365 -34.416,15.102 -13.687,-5.263 -21.094,-21.015 -16.053,-34.512 l 0,0 45.93,-119.426 c 0,0 5.736,-9.253 16.999,-15.836 11.263,-6.583 20.551,-5.193 33.058,-10.752 12.505,-5.56 26.315,-21.494 26.315,-21.494 z"
           id="liquid_1_"
           style="fill:url(#linearGradient3074)" />
        <ellipse
           cx="841.08502"
           cy="94.406998"
           rx="27.716999"
           ry="7.29"
           transform="matrix(0.9334,0.359,-0.359,0.9334,89.9472,-295.6295)"
           id="top_1_"
           style="fill:#333333" />
        <path
           d="m 799.503,80.107 c 0,0 2.035,13.787 -0.28,19.809 l -99.675,259.171 0.009,0.003 c -7.113,19.036 2.419,40.289 21.429,47.601 3.299,1.269 6.666,2.022 10.02,2.324 -12.813,-9.64 -18.312,-26.88 -12.433,-42.611 l -0.009,-0.003 97.697,-254.031 c 0,10e-4 -13.299,-12.486 -16.758,-32.263 z"
           id="side-reflection_1_"
           style="opacity:0.3;fill:#ffffff" />
        <g
           id="bubbles_1_">
          <circle
             cx="767.41199"
             cy="247.29401"
             r="2.888"
             id="circle150"
             style="opacity:0.5;fill:#ffffff" />
          <circle
             cx="786.34399"
             cy="268.23499"
             r="4.3540001"
             id="circle152"
             style="opacity:0.5;fill:#ffffff" />
          <circle
             cx="757.44299"
             cy="293.138"
             r="8.1669998"
             id="circle154"
             style="opacity:0.5;fill:#ffffff" />
          <circle
             cx="744.21899"
             cy="308.241"
             r="4.3540001"
             id="circle156"
             style="opacity:0.5;fill:#ffffff" />
          <circle
             cx="761.56299"
             cy="340.54199"
             r="2.888"
             id="circle158"
             style="opacity:0.5;fill:#ffffff" />
        </g>
      </g>
      <g
         transform="translate(-129.37598,84.135381)"
         id="jekyll-text_1_"
         style="display:inline">
        <g
           id="g161"
           style="opacity:0.1">
          <g
             id="g163" />
        </g>
        <g
           id="g167">
          <g
             id="g169">
            <g
               id="g171">
              <linearGradient
                 x1="411.25879"
                 y1="399.63571"
                 x2="411.25879"
                 y2="134.1638"
                 id="linearGradient3393"
                 gradientUnits="userSpaceOnUse">
                <stop
                   id="stop3395"
                   style="stop-color:#1a1a1a;stop-opacity:1"
                   offset="0" />
                <stop
                   id="stop3397"
                   style="stop-color:#4a4a4c;stop-opacity:1"
                   offset="0.40259999" />
                <stop
                   id="stop3399"
                   style="stop-color:#333333;stop-opacity:1"
                   offset="1" />
              </linearGradient>
            </g>
          </g>
          <defs
             id="defs182">
            <filter
               filterUnits="userSpaceOnUse"
               x="58.293999"
               y="134.16499"
               width="705.92902"
               height="265.47101"
               color-interpolation-filters="sRGB"
               id="filter3403">
              <feColorMatrix
                 type="matrix"
                 values="-1 0 0 0 1  0 -1 0 0 1  0 0 -1 0 1  0 0 0 1 0"
                 color-interpolation-filters="sRGB"
                 result="source"
                 id="feColorMatrix3405" />
            </filter>
          </defs>
          <mask
             id="mask3407">
            <g
               id="g3409"
               style="filter:url(#Adobe_OpacityMaskFilter_1_)">
              <image
                 xlink:href="/home/sotiri/BFF79FDAE99D0745.jpg"
                 width="711"
                 height="270"
                 transform="translate(56,132)"
                 id="image3411"
                 style="overflow:visible" />
            </g>
          </mask>
          <g
             mask="url(#SVGID_4_)"
             id="g192"
             style="opacity:0.75">
            <g
               id="g194" />
          </g>
        </g>
        <g
           id="highlight_1_"
           style="opacity:0.3;display:none">
          <g
             id="g199"
             style="display:inline">
            <path
               d="m 661.764,281.891 c -0.14,0.146 -0.274,0.283 -0.412,0.427 -4.196,9.143 -7.592,19.445 -7.32,28.013 0.295,-9.433 4.534,-20.601 9.204,-29.947 -0.476,0.488 -0.968,0.991 -1.472,1.507 z"
               id="path201"
               style="fill:#ffffff" />
            <path
               d="m 581.332,275.736 c -4.196,9.142 -7.591,19.445 -7.318,28.012 0.295,-9.459 4.558,-20.665 9.243,-30.028 -0.652,0.687 -1.293,1.36 -1.925,2.016 z"
               id="path203"
               style="fill:#ffffff" />
            <path
               d="m 711.666,180.841 c 0.136,-0.166 0.285,-0.335 0.466,-0.516 9.124,-7.057 28.844,-14.703 39.733,-14.997 8.229,0 11.854,2.684 12.304,6.954 0.53,-5.417 -2.853,-8.954 -12.304,-8.954 -10.89,0.294 -30.609,7.939 -39.733,14.997 -1.413,1.413 -1.442,2.409 -0.466,2.516 z"
               id="path205"
               style="fill:#ffffff" />
            <path
               d="m 744.801,278.013 c -7.946,8.233 -34.729,32.641 -54.154,39.992 -14.205,5.303 -19.84,2.787 -20.35,-3.907 -0.462,8.146 4.812,11.707 20.35,5.907 19.425,-7.352 46.208,-31.759 54.154,-39.992 2.147,-2.146 3.452,-2.196 3.929,-1.386 0.747,-2.206 -0.558,-3.982 -3.929,-0.614 z"
               id="path207"
               style="fill:#ffffff" />
            <path
               d="m 567.951,282.836 c 8.83,-7.058 20.31,-19.702 29.728,-32.347 11.478,-14.997 33.258,-45.285 45.619,-66.751 1.331,-2.492 3.223,-7.329 2.762,-10.06 -0.325,2.695 -1.716,6.101 -2.762,8.06 -12.361,21.466 -34.142,51.754 -45.619,66.751 -9.418,12.645 -20.897,25.289 -29.728,32.347 -1.883,1.568 -2.166,3.045 -1.493,3.732 0.289,-0.539 0.768,-1.128 1.493,-1.732 z"
               id="path209"
               style="fill:#ffffff" />
            <path
               d="m 631.648,174.255 c 0.137,-0.165 0.286,-0.335 0.466,-0.515 9.124,-7.058 28.844,-14.703 39.733,-14.997 8.229,0 11.854,2.684 12.305,6.954 0.529,-5.417 -2.854,-8.954 -12.305,-8.954 -10.89,0.294 -30.609,7.939 -39.733,14.997 -1.413,1.411 -1.441,2.407 -0.466,2.515 z"
               id="path211"
               style="fill:#ffffff" />
            <path
               d="m 723.315,190.324 c 1.33,-2.492 3.223,-7.329 2.762,-10.059 -0.325,2.695 -1.716,6.101 -2.762,8.059 -12.361,21.466 -34.142,51.755 -45.62,66.752 -5.499,7.383 -11.699,14.758 -17.667,21.029 -11.053,10.485 -32.883,29.062 -49.399,35.313 -14.205,5.302 -19.84,2.787 -20.349,-3.907 -0.462,8.146 4.812,11.707 20.349,5.907 16.517,-6.252 38.347,-24.828 49.399,-35.313 5.968,-6.271 12.168,-13.646 17.667,-21.029 11.479,-14.997 33.259,-45.285 45.62,-66.752 z"
               id="path213"
               style="fill:#ffffff" />
          </g>
          <g
             id="g215"
             style="display:inline">
            <path
               d="m 514.847,300.244 c -8.886,7.584 -17.301,11.671 -18.37,8.028 -1.29,6.727 8.236,2.62 18.37,-6.028 15.894,-14.409 38.557,-42.051 52.095,-62.341 4.415,-10.292 10.302,-22.055 16.482,-23.819 7.621,-2.268 12.73,1.711 13.528,5.497 0.98,-4.139 -4.525,-10.176 -13.528,-7.497 -6.181,1.764 -12.067,13.527 -16.482,23.819 -13.539,20.29 -36.202,47.932 -52.095,62.341 z"
               id="path217"
               style="fill:#ffffff" />
            <path
               d="m 506.95,247.412 c -0.327,1.483 -1.302,3.283 -2.993,5.194 -9.418,10.88 -25.9,29.7 -30.021,41.757 -1.59,4.845 -2.228,8.954 -2.091,12.381 0.132,-2.994 0.799,-6.446 2.091,-10.381 4.12,-12.057 20.603,-30.877 30.021,-41.757 2.558,-2.888 3.475,-5.523 2.993,-7.194 z"
               id="path219"
               style="fill:#ffffff" />
            <path
               d="m 453.334,281.66 c 11.773,-9.704 26.783,-27.348 37.967,-35.875 15.42,-11.852 33.887,-7.074 34.619,8.003 0.87,-16.64 -18.535,-22.364 -34.619,-10.003 -11.184,8.527 -26.194,26.171 -37.967,35.875 -1.911,1.562 -2.378,3.524 -1.781,4.334 0.299,-0.759 0.872,-1.592 1.781,-2.334 z"
               id="path221"
               style="fill:#ffffff" />
            <path
               d="m 375.458,358.222 c 0.549,-1.602 2.582,-0.866 2.824,1.07 4.12,22.055 23.251,37.051 45.325,37.051 30.609,0 62.985,-26.465 88.885,-61.752 18.248,-24.995 32.964,-52.637 47.092,-79.984 -1.411,2.155 -2.896,4.334 -4.414,6.504 -12.802,24.541 -26.319,49.074 -42.678,71.48 -25.899,35.287 -58.275,61.752 -88.885,61.752 -22.074,0 -41.205,-14.996 -45.325,-37.051 -0.295,-2.353 -3.238,-2.94 -2.944,0.294 0.037,0.216 0.082,0.421 0.12,0.636 z"
               id="path223"
               style="fill:#ffffff" />
          </g>
          <g
             id="g225"
             style="display:inline">
            <path
               d="m 320.568,279.74 c -10.301,5.294 -22.663,8.234 -27.666,8.234 -4.696,0 -5.261,1.495 -2.761,2.249 0.676,-0.152 1.583,-0.249 2.761,-0.249 5.003,0 17.365,-2.94 27.666,-8.234 11.909,-6.466 16.244,-13.614 15.613,-18.794 -0.555,4.932 -5.171,11.124 -15.613,16.794 z"
               id="path227"
               style="fill:#ffffff" />
            <path
               d="m 364.624,283.953 c -5.54,14.862 -8.75,28.675 -8.607,39.965 0.25,-11.731 3.885,-25.968 9.827,-41.166 -0.406,0.406 -0.814,0.802 -1.22,1.201 z"
               id="path229"
               style="fill:#ffffff" />
            <path
               d="m 276.883,308.513 c -0.39,9.535 4.716,16.421 15.136,16.161 16.581,-0.237 43.261,-19.898 60.258,-34.465 0.48,-0.6 1.064,-1.227 1.794,-1.869 6.181,-5.293 11.184,-12.057 17.954,-20.29 19.72,-43.521 42.382,-77.044 77.112,-109.097 34.491,-31.688 63.238,-26.826 64.218,-6.708 0.864,-21.762 -28.612,-28.003 -64.218,4.708 -34.73,32.053 -57.393,65.575 -77.112,109.097 -6.77,8.233 -11.773,14.997 -17.954,20.29 -0.729,0.643 -1.313,1.27 -1.794,1.869 -16.997,14.566 -43.677,34.228 -60.258,34.465 -9.676,0.241 -14.769,-5.68 -15.136,-14.161 z"
               id="path231"
               style="fill:#ffffff" />
            <path
               d="m 430.594,224.881 c -3.229,1.358 -3.702,3.006 -2.738,3.819 0.477,-0.601 1.353,-1.237 2.738,-1.819 18.248,-8.234 44.737,-27.348 58.865,-42.051 12.647,-13.291 17.574,-22.541 16.842,-27.207 -0.646,5.083 -5.802,13.605 -16.842,25.207 -14.128,14.703 -40.617,33.817 -58.865,42.051 z"
               id="path233"
               style="fill:#ffffff" />
            <path
               d="m 427.062,274.519 c 7.566,-5.8 10.82,-12.909 10.389,-18.367 -0.397,5.121 -3.717,11.254 -10.389,16.367 -11.184,8.528 -33.258,14.997 -40.322,10.88 l -1.472,-0.882 c -0.623,-1.036 -1.24,-2.073 -1.759,-3.109 -0.197,0.233 -0.4,0.463 -0.595,0.699 0.589,1.47 1.472,2.94 2.354,4.41 l 1.472,0.882 c 7.064,4.117 29.138,-2.352 40.322,-10.88 z"
               id="path235"
               style="fill:#ffffff" />
            <path
               d="m 450.313,306 c 0,5 -5.003,8.255 -10.595,9.137 -12.496,1.942 -36.513,-11.67 -49.571,-26.562 -0.777,-0.197 -1.527,-0.369 -2.23,-0.634 12.362,15.879 38.556,31.438 51.801,29.379 5.592,-0.883 10.595,-4.483 10.595,-8.916 0,-0.603 0.971,-0.906 1.331,-0.524 0.083,-0.545 0.141,-0.879 0.141,-1.879 h -1.472 z"
               id="path237"
               style="fill:#ffffff" />
            <path
               d="m 322.334,246.453 c 14.172,0.417 21.252,6.143 21.876,13.463 0.573,-8.252 -6.438,-15.009 -21.876,-15.463 -32.67,-1.176 -71.814,26.76 -71.52,61.753 0.002,0.12 0.012,0.235 0.015,0.354 0.921,-34.218 39.349,-61.264 71.505,-60.107 z"
               id="path239"
               style="fill:#ffffff" />
            <path
               d="m 426.768,236.343 c -10.773,4.357 -23.336,13.189 -36.518,28.818 -2.124,3.287 -4.092,6.426 -5.864,9.354 15.305,-20.29 30.021,-31.174 42.382,-36.173 17.671,-6.791 30.812,-1.038 31.557,9.844 0.808,-12.152 -12.832,-19.039 -31.557,-11.843 z"
               id="path241"
               style="fill:#ffffff" />
            <path
               d="m 364.828,331.673 c -0.115,6.95 1.041,12.514 3.552,15.626 0.51,-0.253 0.769,-0.87 0.112,-1.853 -2.343,-2.787 -3.541,-7.654 -3.664,-13.773 z"
               id="path243"
               style="fill:#ffffff" />
          </g>
          <g
             id="g245"
             style="display:inline">
            <path
               d="m 236.002,242.865 c 0.458,-0.489 1.109,-0.857 1.605,-0.857 3.532,-0.294 9.713,1.176 12.067,10.292 0.521,2.247 0.81,4.655 0.882,7.203 0.05,-3.293 -0.227,-6.379 -0.882,-9.203 -2.354,-9.116 -8.535,-10.586 -12.067,-10.292 -1.143,0 -3.107,1.937 -1.605,2.857 z"
               id="path247"
               style="fill:#ffffff" />
            <path
               d="m 58.45,357.785 c 0.575,-1.344 2.627,-0.595 2.859,1.259 4.12,22.055 22.957,37.051 45.031,37.051 27.667,0 67.989,-33.816 94.477,-70.574 6.77,-9.115 24.429,-35.287 33.553,-55.577 -0.702,0.886 -1.422,1.743 -2.151,2.571 -9.519,19.483 -25.13,42.562 -31.402,51.006 -26.488,36.758 -66.811,70.574 -94.477,70.574 -22.074,0 -40.911,-14.996 -45.031,-37.051 -0.294,-2.354 -3.532,-2.94 -2.943,0.294 0.025,0.151 0.057,0.296 0.084,0.447 z"
               id="path249"
               style="fill:#ffffff" />
            <path
               d="m 216.71,281.412 c 5.887,-4.705 20.897,-18.526 22.957,-30.582 0,-0.505 -0.047,-0.974 -0.117,-1.425 -2.426,11.918 -17.047,25.376 -22.84,30.007 -0.628,0.628 -0.61,1.576 -0.271,2.367 0.074,-0.13 0.159,-0.255 0.271,-0.367 z"
               id="path251"
               style="fill:#ffffff" />
          </g>
          <path
             d="m 252.618,213.19 c 5.298,-6.175 13.245,-8.234 17.66,-4.705 1.633,1.306 2.537,3.217 2.75,5.417 0.248,-3.03 -0.639,-5.73 -2.75,-7.417 -4.415,-3.529 -12.362,-1.47 -17.66,4.705 -3.528,3.896 -5.176,8.374 -4.808,12.038 0.278,-3.221 1.899,-6.827 4.808,-10.038 z"
             id="path253"
             style="fill:#ffffff;display:inline" />
        </g>
      </g>
    </g>
  </g>
</svg>
