<svg xmlns="http://www.w3.org/2000/svg" xmlns:xlink="http://www.w3.org/1999/xlink" width="189" height="337.7"><defs><linearGradient x1="724.6" y1="335.7" x2="787.7" y2="398.9" id="a" gradientUnits="userSpaceOnUse" gradientTransform="rotate(-23.964 479.808 241.323)"><stop offset="0" stop-color="#919191"/><stop offset="1" stop-color="#fff"/></linearGradient><linearGradient x1="700.8" y1="383.9" x2="739.1" y2="422.1" id="b" gradientUnits="userSpaceOnUse" gradientTransform="rotate(-23.964 479.808 241.323)"><stop offset="0" stop-color="#900"/><stop offset="1" stop-color="#e80000"/></linearGradient><linearGradient x1="724.6" y1="335.7" x2="787.7" y2="398.9" id="c" xlink:href="#a" gradientUnits="userSpaceOnUse" gradientTransform="rotate(-23.964 479.808 241.323)"/><linearGradient x1="700.8" y1="383.9" x2="739.1" y2="422.1" id="d" xlink:href="#b" gradientUnits="userSpaceOnUse" gradientTransform="rotate(-23.964 479.808 241.323)"/></defs><g transform="translate(-697.202 -73.648)"><path d="M802.4 80.4v2s2 13.6-.3 19.7l-99 260c-7 19 2.6 40.4 21.6 47.7 19 7.3 40.3-2 47.8-21l99.8-259c2-5 13-15 13-15 .8-.5 1-1 1.5-1.5l.3-.4c2.4-6.6-14-19.2-37-28-23-9-44-10.7-46.6-4v.4z" opacity=".1"/><path d="M799.5 78.2v2s2 13.6-.3 19.7l-99.7 259c-7 19 2.5 40 21.5 47 19 7.3 40.3-2 47.8-21l99.7-259c2-5 13-14.8 13-14.8.6-.5 1-1 1.3-1.5l.2-.4c2.6-6.7-14-19.3-37-28.2-23-8.7-43.8-10.5-46.3-4v.6h-.2z" fill="url(#c)"/><path d="M830.8 195.4l-72 187h.2c-5.3 13.3-20.8 20.3-34.5 15-13.6-5.2-21-21-16-34.5l46-120s5.7-9.5 17-16c11.2-6.6 20.5-5 33-10.8C817 211 830.8 195 830.8 195z" fill="url(#d)"/><ellipse cx="841.1" cy="94.4" rx="27.7" ry="7.3" transform="rotate(21.038 841.007 94.393)" fill="#333"/><path d="M799.5 80s2 14-.3 20l-99.7 259c-7 19 2.5 40.4 21.5 47.7 3.3 1.3 6.7 2 10 2.3-12.8-9.6-18.3-27-12.4-42.6l97.7-254S803 100 799.5 80z" opacity=".3" fill="#fff"/><g fill="#fff"><circle cx="767.4" cy="247.3" r="2.9" opacity=".5"/><circle cx="786.3" cy="268.2" r="4.4" opacity=".5"/><circle cx="757.4" cy="293.1" r="8.2" opacity=".5"/><circle cx="744.2" cy="308.2" r="4.4" opacity=".5"/><circle cx="761.6" cy="340.5" r="2.9" opacity=".5"/></g></g></svg>
