<?xml version="1.0" encoding="UTF-8" standalone="no"?>
<!-- Created with Inkscape (http://www.inkscape.org/) -->

<svg
   xmlns:dc="http://purl.org/dc/elements/1.1/"
   xmlns:cc="http://creativecommons.org/ns#"
   xmlns:rdf="http://www.w3.org/1999/02/22-rdf-syntax-ns#"
   xmlns:svg="http://www.w3.org/2000/svg"
   xmlns="http://www.w3.org/2000/svg"
   version="1.1"
   width="1024"
   height="844.20001"
   viewBox="0 0 1024 844.20001"
   id="Layer_1"
   xml:space="preserve"><metadata
     id="metadata29"><rdf:RDF><cc:Work
         rdf:about=""><dc:format>image/svg+xml</dc:format><dc:type
           rdf:resource="http://purl.org/dc/dcmitype/StillImage" /><dc:title></dc:title></cc:Work></rdf:RDF></metadata><defs
     id="defs27" /><g
     transform="translate(0,-77)"
     id="g3"
     style="fill:#ffffff"><path
       d="M 512,332.2 C 582.4,332.2 639.6,275 639.6,204.6 639.6,134.4 582.2,77 512,77 c -70.2,0 -127.6,57.2 -127.6,127.6 0,70.4 57.2,127.6 127.6,127.6 z"
       id="path5"
       style="fill:#ffffff" /><path
       d="m 267.8,422.2 c 47.4,0 86.2,-38.6 86.2,-86.2 0,-47.8 -38.8,-86.4 -86.2,-86.4 -47.6,0 -86.4,38.8 -86.4,86.4 0,47.6 38.8,86.2 86.4,86.2 z"
       id="path7"
       style="fill:#ffffff" /><path
       d="m 95.4,471 c 32,0 58,-26 58,-58 -0.2,-32 -26.2,-58 -58,-58 -32,0 -58,26 -58,58 0,32 26,58 58,58 z"
       id="path9"
       style="fill:#ffffff" /><path
       d="m 928.8,471 c 32,0 58,-26 58,-58 0,-32 -26,-58 -58,-58 -32,0 -58,26 -58,58 0,32 26,58 58,58 z"
       id="path11"
       style="fill:#ffffff" /><path
       d="m 756.2,422.2 c 47.6,0 86.399,-38.6 86.399,-86.2 0,-47.8 -38.8,-86.4 -86.399,-86.4 -47.601,0 -86.2,38.8 -86.2,86.4 0,47.6 38.6,86.2 86.2,86.2 z"
       id="path13"
       style="fill:#ffffff" /><path
       d="m 928.8,503.8 c -9.2,0 -18.2,1.8 -26.8,4.4 14.6,25 23.8,53.8 23.8,85 v 181 h 98.2 v -175 c 0,-52.6 -42.8,-95.4 -95.2,-95.4 z"
       id="path15"
       style="fill:#ffffff" /><path
       d="m 756.2,455.4 c -13.601,0 -26.4,2.6 -38.8,6.199 16.2,31.601 26.2,66.801 26.2,104.601 V 841.4 H 894 V 593.2 c 0,-76 -61.8,-137.8 -137.8,-137.8 z"
       id="path17"
       style="fill:#ffffff" /><path
       d="m 511.8,366.2 c -110.399,0 -200,89.8 -200,200 v 355 h 400 v -355 c 0,-110.4 -89.8,-200 -200,-200 z"
       id="path19"
       style="fill:#ffffff" /><path
       d="m 0,599.2 v 175 h 98.4 v -181 c 0,-31 9,-60 23.8,-85 -8.6,-2.601 -17.4,-4.4 -26.8,-4.4 C 42.8,503.8 0,546.6 0,599.2 z"
       id="path21"
       style="fill:#ffffff" /><path
       d="M 129.8,593.2 V 841.4 H 280.4 V 566.2 c 0,-37.8 10,-73 26,-104.601 -12.4,-3.6 -25.2,-6.199 -38.8,-6.199 -76,0 -137.8,61.8 -137.8,137.8 z"
       id="path23"
       style="fill:#ffffff" /></g></svg>