<?xml version="1.0" encoding="UTF-8" standalone="no"?>
<!-- Created with Inkscape (http://www.inkscape.org/) -->

<svg
   xmlns:dc="http://purl.org/dc/elements/1.1/"
   xmlns:cc="http://creativecommons.org/ns#"
   xmlns:rdf="http://www.w3.org/1999/02/22-rdf-syntax-ns#"
   xmlns:svg="http://www.w3.org/2000/svg"
   xmlns="http://www.w3.org/2000/svg"
   version="1.1"
   width="148.91568"
   height="145.69151"
   viewBox="0 0 148.91567 145.69151"
   id="svg3613">
  <metadata
     id="metadata3651">
    <rdf:RDF>
      <cc:Work
         rdf:about="">
        <dc:format>image/svg+xml</dc:format>
        <dc:type
           rdf:resource="http://purl.org/dc/dcmitype/StillImage" />
        <dc:title></dc:title>
      </cc:Work>
    </rdf:RDF>
  </metadata>
  <defs
     id="defs3649" />
  <g
     transform="translate(0.57489413,-1.9345706)"
     id="g3635"
     style="fill:#00618a;fill-rule:nonzero;stroke:#00618a;stroke-width:6;stroke-miterlimit:4;stroke-opacity:1;stroke-dasharray:none">
    <path
       d="m 135.289,114.997 c -7.23861,0.65347 -16.64894,-1.30121 -21.60282,5.40824 0.0329,7.4861 9.36171,12.03189 15.4293,15.42484 5.73149,1.92802 11.38227,7.73324 16.2253,8.796 -5.21594,-8.41252 -13.83694,-14.1043 -22.08951,-19.2754 -1.2708,-10.15093 14.25703,-1.47821 17.00408,-9.12172 -3.14053,-8.57992 -12.57979,-11.91823 -19.203,-17.240287 C 114.03363,95.233657 104.76677,92.748554 102.14527,84.256775 94.453973,67.235044 88.233162,48.504969 73.705487,35.858581 64.522527,27.15906 53.96377,18.54676 41.356469,15.912153 30.423554,16.318128 22.543594,6.952663 12.33552,4.9719907 1.2007268,4.1202313 -0.53787207,18.033267 7.0521526,23.861922 c 6.9849884,7.100312 9.0490604,16.86498 12.4859614,25.836672 3.043035,6.696708 9.040047,11.383096 4.782906,19.01609 -3.016803,12.123238 -3.244815,26.585122 5.559507,36.437586 6.297119,6.34619 13.031909,-0.92147 12.176363,-7.991046 3.331742,-4.685759 5.415626,7.305546 9.260912,9.132506 4.058922,4.28357 8.388254,8.82706 13.512617,11.62888 C 57.230747,110.58758 52.322583,100.99275 47.200442,91.844518 48.62476,83.275559 36.044432,80.346312 37.097271,90.418997 37.270753,94.424541 34.418614,105.85731 30.208873,97.830654 25.027189,87.900687 26.674386,76.261939 29.628609,65.953101 32.452383,57.836206 25.798543,52.340732 22.496382,45.972487 19.804807,38.695719 19.25034,30.129439 12.989886,24.707642 6.9737407,20.86297 5.3664615,7.2561388 15.555008,11.510866 c 7.673654,5.412887 15.842905,9.326497 25.370291,9.755943 14.067005,4.297207 25.847856,14.239245 35.014499,25.505745 11.027168,13.129908 15.289555,30.075896 23.389679,44.869371 2.262823,6.206692 9.461753,6.907663 14.781333,9.207945 6.91829,1.96271 11.95343,7.21329 17.98817,10.76796 1.22549,0.95461 2.34493,2.06795 3.19002,3.37917 z"
       id="path3637"
       style="stroke:#00618a;stroke-width:6;stroke-miterlimit:4;stroke-opacity:1;stroke-dasharray:none" />
  </g>
  <g
     transform="translate(31.488894,27.510709)"
     id="g3639"
     style="fill:#00618a;fill-rule:evenodd;stroke:#00618a;stroke-width:6;stroke-miterlimit:4;stroke-opacity:1;stroke-dasharray:none">
    <path
       d="M 0.13859226,0.69492413 C 2.5280525,3.2774126 3.9887051,6.1747377 5.4213402,9.0871301 9.2646267,4.8547929 7.2469044,-2.1925017 0.13859226,0.69492413 z"
       id="path3641"
       style="stroke:#00618a;stroke-width:6;stroke-miterlimit:4;stroke-opacity:1;stroke-dasharray:none" />
  </g>
</svg>
