<?xml version="1.0" encoding="UTF-8" standalone="no"?>
<!-- Created with Inkscape (http://www.inkscape.org/) -->

<svg
   xmlns:dc="http://purl.org/dc/elements/1.1/"
   xmlns:cc="http://creativecommons.org/ns#"
   xmlns:rdf="http://www.w3.org/1999/02/22-rdf-syntax-ns#"
   xmlns:svg="http://www.w3.org/2000/svg"
   xmlns="http://www.w3.org/2000/svg"
   version="1.1"
   width="999.93597"
   height="785.664"
   id="svg2">
  <metadata
     id="metadata10">
    <rdf:RDF>
      <cc:Work
         rdf:about="">
        <dc:format>image/svg+xml</dc:format>
        <dc:type
           rdf:resource="http://purl.org/dc/dcmitype/StillImage" />
        <dc:title></dc:title>
      </cc:Work>
    </rdf:RDF>
  </metadata>
  <defs
     id="defs8" />
  <path
     d="m 214.272,499.968 q 0,-29.574 -20.925,-50.499 -20.925,-20.925 -50.499,-20.925 -29.574,0 -50.499,20.925 -20.925,20.925 -20.925,50.499 0,29.574 20.925,50.499 20.925,20.925 50.499,20.925 29.574,0 50.499,-20.925 20.925,-20.925 20.925,-50.499 z M 321.408,249.984 q 0,-29.574 -20.925,-50.499 -20.925,-20.925 -50.499,-20.925 -29.574,0 -50.499,20.925 -20.925,20.925 -20.925,50.499 0,29.574 20.925,50.499 20.925,20.925 50.499,20.925 29.574,0 50.499,-20.925 20.925,-20.925 20.925,-50.499 z M 560.232,518.382 616.59,305.226 q 3.348,-14.508 -4.185,-27.063 -7.533,-12.555 -21.483,-16.461 -13.95,-3.906 -26.784,3.627 -12.834,7.533 -16.74,22.041 L 491.04,500.526 q -33.48,2.79 -59.706,24.273 -26.226,21.483 -35.154,54.963 -11.16,42.966 11.16,81.468 22.32,38.502 65.286,49.662 42.966,11.16 81.468,-11.16 38.502,-22.32 49.662,-65.286 8.928,-33.48 -3.348,-65.286 -12.276,-31.806 -40.176,-50.778 z m 368.28,-18.414 q 0,-29.574 -20.925,-50.499 -20.925,-20.925 -50.499,-20.925 -29.574,0 -50.499,20.925 -20.925,20.925 -20.925,50.499 0,29.574 20.925,50.499 20.925,20.925 50.499,20.925 29.574,0 50.499,-20.925 20.925,-20.925 20.925,-50.499 z m -357.12,-357.12 q 0,-29.574 -20.925,-50.499 -20.925,-20.925 -50.499,-20.925 -29.574,0 -50.499,20.925 -20.925,20.925 -20.925,50.499 0,29.574 20.925,50.499 20.925,20.925 50.499,20.925 29.574,0 50.499,-20.925 20.925,-20.925 20.925,-50.499 z m 249.984,107.136 q 0,-29.574 -20.925,-50.499 -20.925,-20.925 -50.499,-20.925 -29.574,0 -50.499,20.925 -20.925,20.925 -20.925,50.499 0,29.574 20.925,50.499 20.925,20.925 50.499,20.925 29.574,0 50.499,-20.925 20.925,-20.925 20.925,-50.499 z m 178.56,249.984 q 0,145.638 -78.678,269.514 -10.602,16.182 -30.132,16.182 H 108.81 q -19.53,0 -30.132,-16.182 Q 0,646.164 0,499.968 0,398.412 39.618,305.784 79.236,213.156 146.196,146.196 213.156,79.236 305.784,39.618 398.412,0 499.968,0 601.524,0 694.152,39.618 786.78,79.236 853.74,146.196 q 66.96,66.96 106.578,159.588 39.618,92.628 39.618,194.184 z"
     id="path4"
     style="fill:#7cfc00" />
</svg>
