<?xml version="1.0" encoding="UTF-8" standalone="no"?>
<!-- Created with Inkscape (http://www.inkscape.org/) -->

<svg
   xmlns:dc="http://purl.org/dc/elements/1.1/"
   xmlns:cc="http://creativecommons.org/ns#"
   xmlns:rdf="http://www.w3.org/1999/02/22-rdf-syntax-ns#"
   xmlns:svg="http://www.w3.org/2000/svg"
   xmlns="http://www.w3.org/2000/svg"
   version="1.1"
   width="27.915546"
   height="63.187775"
   viewBox="0 0 27.915546 63.187775"
   id="svg2">
  <defs
     id="defs4" />
  <metadata
     id="metadata7">
    <rdf:RDF>
      <cc:Work
         rdf:about="">
        <dc:format>image/svg+xml</dc:format>
        <dc:type
           rdf:resource="http://purl.org/dc/dcmitype/StillImage" />
        <dc:title></dc:title>
      </cc:Work>
    </rdf:RDF>
  </metadata>
  <g
     transform="translate(-330.85764,-359.3619)"
     id="layer1">
    <path
       d="m 336.42857,381.11218 a 0.17857143,0.89285713 0 1 1 -0.35714,0 0.17857143,0.89285713 0 1 1 0.35714,0 z"
       transform="matrix(50.715457,0,0,11.991479,-16708.257,-4179.0524)"
       id="path2996"
       style="fill:none;stroke:#ff8133;stroke-width:0.15420783;stroke-miterlimit:4;stroke-opacity:1;stroke-dasharray:none" />
    <path
       d="m 343.2143,364.05862 a 2.1428571,2.1428571 0 1 1 -4.28572,0 2.1428571,2.1428571 0 1 1 4.28572,0 z"
       transform="matrix(2.0625,0,0,2.0625,-358.44021,-384.08937)"
       id="path3766"
       style="fill:#3399ff;fill-opacity:1;stroke:none" />
    <path
       d="m 343.2143,364.05862 a 2.1428571,2.1428571 0 1 1 -4.28572,0 2.1428571,2.1428571 0 1 1 4.28572,0 z"
       transform="matrix(2.0625,0,0,2.0625,-358.54021,-335.74088)"
       id="path3766-6"
       style="fill:#3399ff;fill-opacity:1;stroke:none" />
  </g>
</svg>
