<svg xmlns="http://www.w3.org/2000/svg" viewBox="0 0 449.9 83.8"><defs><marker id="a" orient="auto" overflow="visible"><path d="M-2-2v4h4v-4h-4z" fill="#ff813f" fill-rule="evenodd" stroke="#ff813f" stroke-width=".5"/></marker><marker id="b" orient="auto" overflow="visible"><path d="M-4 0l-2 2 7-2-7-2 2 2z" fill="#ff813f" fill-rule="evenodd" stroke="#ff813f" stroke-width=".5"/></marker><marker orient="auto" id="c" overflow="visible"><path d="M4 0c0 2.2-2 4-4 4-2.3 0-4-1.8-4-4s1.7-4 4-4c2 0 4 1.8 4 4z" fill="#ff813f" fill-rule="evenodd" stroke="#ff813f" stroke-width="1.1"/></marker><marker id="f" orient="auto" overflow="visible"><path d="M1.2 0l1-1-3.5 1 3.5 1-1-1z" fill="#39f" fill-rule="evenodd" stroke="#39f" stroke-width=".3"/></marker><marker orient="auto" id="e" overflow="visible"><path d="M-1.2 0l-1 1 3.5-1-3.5-1 1 1z" fill="#39f" fill-rule="evenodd" stroke="#39f" stroke-width=".3"/></marker><marker id="d" orient="auto" overflow="visible"><path d="M1.2 0l1-1-3.5 1 3.5 1-1-1z" fill="#39f" fill-rule="evenodd" stroke="#39f" stroke-width=".3"/></marker></defs><g fill="none"><path d="M23.4 41.5c40 40 165 40 205 0s165-40 205 0" stroke="#fff" stroke-width="10" stroke-linecap="round"/><path d="M2.3 93.7l37.3 13.6L72 131l64.4-7.8 66-.7 25-32.4 109.2-25 78.6 17.7 22.4 27.5" transform="translate(3.356 -58.537)" stroke="#ff813f" stroke-width="2" stroke-opacity=".9" marker-start="url(#a)" marker-mid="url(#b)" marker-end="url(#c)"/><path transform="translate(-4.978 -25.707)" d="M51.8 67.8c2.2 2.7 2.3 6.5.4 9.4" stroke="#39f" stroke-width="1.5" stroke-linecap="round" marker-start="url(#d)"/><path d="M51.8 67.8c2.2 2.7 2.3 6.5.4 9.4" transform="translate(-29.73 -64.964) scale(1.54164)" stroke="#39f" stroke-linecap="round" marker-end="url(#e)"/><path d="M53.5 73c0 3-1.6 5.4-4 6.7" transform="translate(29.752 -.585)" stroke="#39f" stroke-width="1.5" stroke-linecap="round" marker-end="url(#e)"/><path d="M53.5 73c0 3-1.6 5.4-4 6.7" transform="translate(4.998 -39.842) scale(1.54164)" stroke="#39f" stroke-linecap="round" marker-start="url(#f)"/><path d="M49.6 65.8c3 1.7 4.4 5 3.8 8.3" transform="translate(90.866 -9.17)" stroke="#39f" stroke-width="1.5" stroke-linecap="round" marker-start="url(#f)"/><path d="M49.6 65.8c3 1.7 4.4 5 3.8 8.3" transform="translate(66.113 -48.428) scale(1.54164)" stroke="#39f" stroke-linecap="round" marker-end="url(#e)"/><path d="M52 68c2.4 3.3 2 7.8-1 10.6" transform="translate(160.062 -8.414)" stroke="#39f" stroke-width="1.5" stroke-linecap="round" marker-end="url(#e)"/><path d="M52 68c2.4 3.3 2 7.8-1 10.6" transform="translate(135.308 -47.67) scale(1.54164)" stroke="#39f" stroke-linecap="round" marker-start="url(#f)"/><path d="M42.8 65c4-1.3 8.3.6 10 4.4" transform="translate(187.588 -43.264)" stroke="#39f" stroke-width="1.5" stroke-linecap="round" marker-start="url(#f)"/><path d="M42.8 65c4-1.3 8.3.6 10 4.4" transform="translate(162.835 -83.026) scale(1.54164)" stroke="#39f" stroke-linecap="round" marker-end="url(#e)"/><path d="M53 70c.5 1 .6 2.4.5 3.7" transform="translate(269.91 -107.017) scale(1.54164)" stroke="#39f" stroke-linecap="round" marker-end="url(#e)"/><path d="M53.5 72c0 1.2 0 2.6-.6 3.8" transform="translate(342.078 -90.634) scale(1.54164)" stroke="#39f" stroke-linecap="round" marker-end="url(#e)"/></g></svg>
