<?xml version="1.0" encoding="UTF-8" standalone="no"?>
<!-- Created with Inkscape (http://www.inkscape.org/) -->

<svg
   xmlns:dc="http://purl.org/dc/elements/1.1/"
   xmlns:cc="http://creativecommons.org/ns#"
   xmlns:rdf="http://www.w3.org/1999/02/22-rdf-syntax-ns#"
   xmlns:svg="http://www.w3.org/2000/svg"
   xmlns="http://www.w3.org/2000/svg"
   version="1.1"
   viewBox="0 0 621.99988 882.79095"
   id="svg2">
  <defs
     id="defs4" />
  <metadata
     id="metadata7">
    <rdf:RDF>
      <cc:Work
         rdf:about="">
        <dc:format>image/svg+xml</dc:format>
        <dc:type
           rdf:resource="http://purl.org/dc/dcmitype/StillImage" />
        <dc:title></dc:title>
      </cc:Work>
    </rdf:RDF>
  </metadata>
  <g
     transform="translate(-5.9270389,-68.968668)"
     id="layer6"
     style="display:inline">
    <path
       d="M 121.42857,735.21933 C 116.93805,725.77834 109.85168,717.67746 105.71429,708.07647 91.165532,674.31543 78.959519,634.44286 74.285714,605.57647 47.469052,574.92436 59.993804,562.74049 52.422041,551.27077 33.127772,522.0438 44.765315,495.13456 35.208911,485.24697 22.416371,472.01109 14.272539,466.65475 5.9270389,432.95934 11.51011,416.40679 29.931227,422.09636 47.5,442.36218 40.068773,423.34229 38.705162,396.35033 38.928572,366.29075 39.109618,341.93113 42.723919,301.08903 50.714286,278.07647 71.204917,219.06267 103.6879,159.46776 152.85714,120.93361 192.33975,89.990918 244.24042,72.939507 294.28571,69.505039 c 51.99392,-3.568197 106.34987,10.900472 151.78572,36.428571 44.0491,24.74896 78.80075,66.64031 102.85714,111.07143 24.47162,45.19804 29.22502,95.63776 34.28572,146.78571 5.47038,55.28856 -5.03925,72.28429 -8.21429,98.21429 7.53925,-15.85572 31.47548,-28.25779 41.53445,-29.06207 21.83886,-1.74617 6.21555,26.82171 2.59425,36.30382 -3.58154,9.378 -24.13324,30.99211 -29.55938,49.11151 -8.69717,29.04226 -12.11882,69.40608 -32.7836,84.71817 -3.52193,29.24066 -10.67282,48.34078 -20.71429,82.5 -3.20353,10.89781 -14.59775,31.79368 -17.85714,40 -16.13416,40.62166 -21.57831,68.2027 -45.71429,104.64286 -12.27745,18.53632 -38.32613,47.74488 -53.57143,63.92857 -15.70686,16.67366 -26.63258,34.46827 -46.78572,45.35714 -19.1483,10.34595 -41.16663,13.57969 -62.85713,11.78572 -15.6104,-1.2911 -32.31516,-6.16769 -45.00001,-15.35715 -21.44329,-15.53445 -31.48799,-36.19765 -48.57142,-56.42857 -21.30727,-25.23298 -45.12885,-46.91182 -62.5,-75 -13.39723,-21.66257 -20.84534,-46.28438 -31.78572,-69.28571 z"
       id="path3812"
       style="fill:#f9b28e;fill-opacity:1;stroke:none" />
  </g>
  <g
     transform="translate(-5.9270389,-68.968668)"
     id="layer10"
     style="display:inline">
    <path
       d="m 329.64285,834.50504 c 20.91797,-10.41824 8.60194,-53.16967 4.64286,-82.35294 -4.5458,-33.50807 -2.19336,-83.04973 21.07143,-104.07563 -11.73521,37.57119 -13.15899,50.51644 -8.57142,83.17927 3.63159,25.85643 15.15344,98.99201 -17.14287,103.2493 z"
       id="path3834"
       style="fill:#e88068;fill-opacity:1;stroke:#e88068;stroke-opacity:1" />
    <path
       d="m 255.71429,747.00504 c -18.56559,30.19037 -25.03718,43.82649 -46.07143,44.28571 33.33414,-17.7932 30.5924,-38.70619 46.07143,-44.28571 z"
       id="path3844"
       style="fill:#e88068;fill-opacity:1;stroke:none" />
    <path
       d="m 375,748.07647 c 17.66485,20.25536 46.68687,35.26416 57.5,23.92857 -26.45665,5.77392 -51.93351,-30.2833 -57.5,-23.92857 z"
       id="path3846"
       style="fill:#e88068;fill-opacity:1;stroke:none" />
  </g>
  <g
     transform="translate(-5.9270389,-68.968668)"
     id="layer8"
     style="display:inline">
    <path
       d="m 243.21429,836.6479 c 27.12244,63.046 114.39376,64.44178 138.21428,-2.14286 -51.45007,23.76305 -104.55264,18.65745 -138.21428,2.14286 z"
       id="path3826"
       style="fill:#f08376;fill-opacity:1;stroke:none" />
  </g>
  <g
     transform="translate(-5.9270389,-68.968668)"
     id="layer9"
     style="display:inline">
    <path
       d="m 243.57143,837.71932 c 66.12389,52.59029 118.11339,17.11093 137.5,-1.78571 0,0 -68.16915,47.4309 -137.5,1.78571 z"
       id="path3829"
       style="fill:#c65545;fill-opacity:1;stroke:none" />
  </g>
  <g
     transform="translate(-5.9270389,-68.968668)"
     id="layer7"
     style="display:inline">
    <path
       d="m 51.071429,468.25504 c -0.487349,-11.01324 -3.22338,-17.43354 -3.772726,-26.07425 -4.299345,-4.89071 -9.520227,-11.60675 -22.655846,-17.85433 2.386911,17.09131 14.15374,34.8063 26.428572,43.92858 z"
       id="path3819"
       style="fill:#e88068;fill-opacity:1;stroke:none" />
    <path
       d="M 56.071429,497.36218 C 61.243444,511.89017 62.887668,535.58064 65,542.71932 50.299079,531.95324 43.628176,505.3338 56.071429,497.36218 z"
       id="path3821"
       style="fill:#e88068;fill-opacity:1;stroke:none" />
    <path
       d="m 41.785714,484.1479 c -9.383776,-10.76704 -11.657267,-8.38148 -16.071428,-13.92858 -5.537765,-6.95909 -8.934718,-0.86715 -12.5,-23.57142 11.077575,3.01002 31.883775,28.62418 28.571428,37.5 z"
       id="path3823"
       style="fill:#e88068;fill-opacity:1;stroke:none" />
    <path
       d="m 569.28572,499.50504 c -3.6097,13.29078 -4.07371,31.95807 -3.39286,40.35714 8.35942,3.2205 7.3924,-9.36843 8.75,-13.57142 2.22639,-6.89271 4.67919,-9.62744 2.67857,-18.03572 -1.01173,-4.25214 -0.1403,-12.93364 -8.03571,-8.75 z"
       id="path3838"
       style="fill:#e88068;fill-opacity:1;stroke:none" />
    <path
       d="m 593.03571,495.04075 c 8.6687,-5.85522 7.21051,-7.4197 12.32144,-16.25 2.82875,-4.88732 19.2986,-16.91185 13.21428,-21.25 -16.54619,6.4878 -29.18986,26.29159 -25.53572,37.5 z"
       id="path3840"
       style="fill:#e88068;fill-opacity:1;stroke:none" />
    <path
       d="m 573.75,472.00504 c 0.30168,-5.56397 1.27308,-6.28006 1.42858,-10.7143 5.93639,-13.22571 25.86461,-24.52129 34.99999,-26.7857 6.30718,8.97632 -30.65882,38.95683 -36.42857,37.5 z"
       id="path3842"
       style="fill:#e88068;fill-opacity:1;stroke:none" />
  </g>
  <g
     transform="translate(-5.9270389,-68.968668)"
     id="layer4">
    <path
       d="m 399.46429,633.61218 c -1.54841,1.61956 -2.31641,4.21575 -1.96429,6.42857 0.53719,3.37587 5.8798,5.82194 8.75,7.67857 6.36147,4.115 11.89062,5.2025 19.46429,5 7.90847,-0.21145 15.95991,-2.1757 23.03571,-5.71428 5.22164,-2.61132 9.0838,-6.25105 11.42857,-11.07143 -1.76236,-4.46323 -3.81404,-8.90285 -8.57142,-9.82143 -8.95302,-1.7287 -20.75653,-1.65309 -30.53572,-0.17857 -7.55822,1.13964 -16.32497,2.15371 -21.60714,7.67857 z"
       id="path3776"
       style="fill:#ffffff;fill-opacity:1;stroke:none" />
    <path
       d="m 228.21429,639.68361 c -0.20308,-3.05127 -4.5685,-6.82512 -8.21429,-7.5 -8.7244,-1.61499 -14.45608,-2.26019 -22.32143,-2.85714 -7.18173,-0.54507 -15.48825,-0.59522 -22.67857,-0.17858 -6.56014,-0.0503 -10.19199,5.14821 -13.03572,9.28572 4.3154,8.06253 9.5755,9.18153 15.89286,11.42857 8.20712,2.91922 17.42742,2.86267 26.07143,1.78572 6.8365,-0.85175 10.36444,-1.14081 16.07143,-5.00001 1.995,-1.34907 4.13166,-3.55587 8.21429,-6.96428 z"
       id="path3802"
       style="fill:#ffffff;fill-opacity:1;stroke:none" />
  </g>
  <g
     transform="translate(-5.9270389,-68.968668)"
     id="layer3"
     style="display:inline">
    <path
       d="m 406.96429,628.61218 c -1.65185,4.28952 5.02503,11.62575 8.92857,14.10714 4.04013,2.56822 9.24549,3.50304 14.01786,3.125 5.39371,-0.42726 10.89572,-2.56325 15.08928,-5.98214 2.48239,-2.02382 4.2656,-4.99374 5.26786,-8.03571 0.6623,-2.01015 1.33737,-4.41882 -0.0893,-5.98215 -12.24687,-2.57761 -33.17604,-0.59275 -43.21428,2.76786 z"
       id="path3771"
       style="fill:#003bff;fill-opacity:1;stroke:none" />
    <path
       d="m 178.97321,628.65682 c -4.69449,1.58772 2.86212,9.08505 6.83036,12.05358 3.33578,2.4954 7.36111,4.28827 11.47322,4.95535 3.75959,0.60989 7.84265,0.41996 11.38392,-0.98214 3.17215,-1.25596 5.91578,-3.66613 8.03572,-6.33929 1.13341,-1.42918 3.06559,-3.29 2.32143,-4.95535 -1.49618,-3.34832 -6.92932,-2.50356 -10.53572,-3.16965 -5.41418,-0.99997 -10.96962,-1.05122 -16.47321,-1.20535 -5.2368,-0.14666 -9.64695,-1.50326 -13.03572,-0.35715 z"
       id="path3773"
       style="fill:#003bff;fill-opacity:1;stroke:none" />
  </g>
  <g
     transform="translate(-5.9270389,-68.968668)"
     id="layer2"
     style="opacity:0.87999998;display:inline">
    <path
       d="m 417.32143,626.20147 c -0.77256,2.21003 3.36246,5.48247 5.26786,6.51785 2.2072,1.19937 4.86928,2.33086 7.32143,1.78572 2.27317,-0.50535 4.62567,-2.19577 5.44642,-4.375 0.60705,-1.61181 0.98571,-4.27699 -0.17856,-5.625 -3.9244,-0.11641 -14.00052,0.27524 -17.85715,1.69643 z"
       id="path2997"
       style="fill:#000000;fill-opacity:1;stroke:none" />
    <path
       d="m 207.58929,629.7729 c 1.44716,0.51604 -1.78957,2.72846 -3.21429,3.30357 -2.02391,0.81699 -4.35903,0.94615 -6.51786,0.625 -1.59319,-0.23701 -3.11585,-1.12497 -4.28571,-2.23215 -0.62946,-0.59574 -1.57469,-2.39588 -0.71429,-2.5 4.8824,-0.59086 10.09983,-0.84826 14.73215,0.80358 z"
       id="path2999"
       style="fill:#000000;fill-opacity:1;stroke:none" />
  </g>
  <g
     transform="translate(-5.9270389,-68.968668)"
     id="layer5">
    <path
       d="M 531.07143,595.21933 C 528.50929,584.55737 502.42478,578.65162 485,578.79075 c -27.19832,0.21716 -43.11117,20.24388 -68.21429,30.71429 -11.62167,4.84735 -25.67344,5.08004 -36.42857,10 -4.75597,2.17563 -5.90178,6.88286 10.35715,11.78571 13.75893,1.33142 54.46641,-17.10814 83.21429,-22.5 9.78184,-1.83465 10.76696,-4.60433 20.71427,-4.28571 13.10551,3.52287 22.98732,6.87071 36.42858,-9.28571 z"
       id="path3805"
       style="fill:#904c18;fill-opacity:1;stroke:none" />
    <path
       d="m 108.92858,607.36218 c 6.23399,1.72867 9.58282,-3.13445 15.71428,-1.07143 18.38987,6.18754 38.31045,7.4542 56.78571,13.57143 14.7324,6.54683 28.14952,7.82199 44.64286,10.71429 9.624,-0.77323 24.49008,-18.25758 8.57143,-18.21429 -38.31786,2.48797 -86.44258,-29.3462 -97.14286,-29.99999 -17.03818,-1.04104 -35.62804,3.05039 -46.071428,10.71428 1.342331,8.37817 10.035348,12.21578 17.500008,14.28571 z"
       id="path3807"
       style="fill:#904c18;fill-opacity:1;stroke:none" />
  </g>
</svg>
